<svg width="830" height="562" viewBox="0 0 830 562" fill="none" xmlns="http://www.w3.org/2000/svg">
<path fill-rule="evenodd" clip-rule="evenodd" d="M217.843 12.8622H362.874C373.411 12.8622 382.034 21.4796 382.034 32.0104V110.948V116.789V167.04C382.034 167.918 381.53 168.68 380.71 169.011C379.889 169.342 379.011 169.169 378.378 168.551L345.744 135.937H217.843C207.306 135.937 198.684 127.319 198.684 116.789V32.0104C198.698 21.4796 207.321 12.8622 217.843 12.8622Z" fill="#D3EBFA"/>
<path fill-rule="evenodd" clip-rule="evenodd" d="M83.9114 521.633C83.9114 521.633 12.7133 436.783 95.773 363.298C95.773 363.298 21.1776 280.231 68.6526 185.972C116.128 91.7134 207.666 99.7122 280.577 118.875C353.474 138.052 448.424 128.456 521.321 53.374C594.218 -21.708 678.99 -5.73922 711.206 29.4065C743.423 64.5521 751.887 136.44 716.288 208.329C680.689 280.217 701.029 326.541 731.547 361.686C762.064 396.832 765.447 494.659 692.55 521.619H83.9114V521.633ZM105.346 551.686C105.346 551.686 29.2533 505.938 47.7078 426.928C47.7078 426.928 48.2548 424.9 46.4842 424.583C44.7136 424.252 6.91208 485.034 59.7421 540.666L105.346 551.686Z" fill="#D3EBFA"/>
<path fill-rule="evenodd" clip-rule="evenodd" d="M508.423 337.287C596.175 329.015 579.823 419.663 523.235 476.805C512.857 487.279 496.317 501.607 475.976 518.554H299.795C367.955 422.929 448.151 342.955 508.423 337.287Z" fill="#99C8EC"/>
<path fill-rule="evenodd" clip-rule="evenodd" d="M366.228 518.54C452.584 432.611 530.879 375.727 531.354 375.368C532.938 374.202 535.154 374.548 536.321 376.13C537.472 377.713 537.141 379.928 535.558 381.093C535.083 381.439 460.113 435.905 376.218 518.54H366.228Z" fill="#89BBE6"/>
<path fill-rule="evenodd" clip-rule="evenodd" d="M447.834 130.772C483.85 119.436 485.146 158.869 466.562 187.886C448.957 215.392 371.641 300.789 354.136 344.711L344.65 339.661C349.774 274.131 401.712 145.288 447.834 130.772Z" fill="#99C8EC"/>
<path fill-rule="evenodd" clip-rule="evenodd" d="M348.133 341.517C370.201 245.675 460.545 145.015 460.847 144.684C461.408 144.051 462.373 144.008 462.992 144.554C463.611 145.115 463.668 146.079 463.121 146.698C462.819 147.043 372.36 247.805 350.868 342.984L348.133 341.517Z" fill="#89BBE6"/>
<path fill-rule="evenodd" clip-rule="evenodd" d="M467.843 190.274C503.543 185.742 498.073 222.945 475.732 246.999C457.219 266.938 388.44 320.642 355.475 359.37L340.346 353.673C362.442 291.294 425.709 195.625 467.843 190.274Z" fill="#B6DAF4"/>
<path fill-rule="evenodd" clip-rule="evenodd" d="M345.888 355.759C387.331 275.757 477.387 205.768 477.704 205.509C478.337 205.02 479.244 205.12 479.733 205.753C480.223 206.386 480.122 207.293 479.489 207.782C479.172 208.041 389.692 277.57 348.565 356.766L345.888 355.759Z" fill="#99C8EC"/>
<path fill-rule="evenodd" clip-rule="evenodd" d="M9.83428 518.54H820.062C825.374 518.54 829.721 522.885 829.721 528.193C829.721 533.502 825.374 537.846 820.062 537.846H787.457C784.506 537.846 782.088 540.263 782.088 543.212C782.088 546.162 784.506 548.579 787.457 548.579H799.391C803.076 548.579 806.099 551.6 806.099 555.283C806.099 558.965 803.076 561.987 799.391 561.987H31.5853C27.9001 561.987 24.8772 558.965 24.8772 555.283C24.8772 551.6 27.9001 548.579 31.5853 548.579H40.9853C43.9363 548.579 46.3546 546.162 46.3546 543.212C46.3546 540.263 43.9363 537.846 40.9853 537.846H9.83428C4.52249 537.846 0.175171 533.502 0.175171 528.193C0.175171 522.899 4.52249 518.54 9.83428 518.54ZM14.8726 562.001C18.4138 562.001 21.3216 559.109 21.3216 555.556V555.024C21.3216 551.485 18.4282 548.593 14.8726 548.593C11.3314 548.593 8.42356 551.485 8.42356 555.024V555.556C8.42356 559.109 11.3314 562.001 14.8726 562.001Z" fill="#5897C7"/>
<path fill-rule="evenodd" clip-rule="evenodd" d="M227.546 5.48206H372.576C383.113 5.48206 391.736 14.0994 391.736 24.6302V103.568V109.409V159.66C391.736 160.537 391.232 161.3 390.412 161.631C389.591 161.962 388.713 161.789 388.08 161.17L355.446 128.557H227.546C217.009 128.557 208.386 119.939 208.386 109.409V24.6302C208.386 14.0994 217.009 5.48206 227.546 5.48206Z" fill="#E84A5B"/>
<path fill-rule="evenodd" clip-rule="evenodd" d="M242.819 104.359H318.062C321.488 104.359 324.295 101.554 324.295 98.1297V41.0449C324.295 37.621 321.488 34.8157 318.062 34.8157H315.01V31.924C315.01 30.9745 314.233 30.2121 313.297 30.2121H290.567C289.617 30.2121 288.854 30.9889 288.854 31.924V34.8157H242.833C239.407 34.8157 236.6 37.621 236.6 41.0449V98.1297C236.586 101.568 239.393 104.359 242.819 104.359Z" fill="#F9B532"/>
<path fill-rule="evenodd" clip-rule="evenodd" d="M295.318 104.359H247.771C244.978 104.359 242.689 102.072 242.689 99.2806V50.7988C242.689 48.0079 244.978 45.7205 247.771 45.7205H295.318C298.11 45.7205 300.399 48.0079 300.399 50.7988V99.295C300.399 102.086 298.11 104.359 295.318 104.359Z" fill="white"/>
<path fill-rule="evenodd" clip-rule="evenodd" d="M250.319 104.359H319.79C323.216 104.359 327.275 101.554 328.801 98.1297L350.696 49.0006C352.222 45.5766 350.667 42.7713 347.241 42.7713H343.585L344.952 39.6926C345.514 38.441 344.938 37.4196 343.685 37.4196H318.336C317.083 37.4196 315.601 38.441 315.054 39.6926L313.686 42.7713H277.77C274.344 42.7713 270.285 45.5766 268.759 49.0006L246.864 98.1297C245.338 101.568 246.893 104.359 250.319 104.359Z" fill="#FCC749"/>
<path fill-rule="evenodd" clip-rule="evenodd" d="M285.558 57.3878C290.28 52.6691 296.469 50.3097 302.674 50.3097C308.864 50.3097 315.054 52.6691 319.79 57.3878C324.511 62.1065 326.872 68.2926 326.872 74.4931C326.872 80.6792 324.511 86.8653 319.79 91.5983C315.068 96.317 308.864 98.6764 302.674 98.6764C296.484 98.6764 290.294 96.317 285.558 91.5983C280.836 86.8796 278.476 80.6792 278.476 74.4931C278.476 68.307 280.836 62.1209 285.558 57.3878ZM302.674 53.7768C297.362 53.7768 292.065 55.8053 288.005 59.8478C283.96 63.8904 281.93 69.1989 281.93 74.5074C281.93 79.816 283.96 85.1101 288.005 89.1671C292.05 93.2096 297.362 95.2381 302.674 95.2381C307.986 95.2381 313.283 93.2096 317.328 89.1671C321.373 85.1245 323.403 79.816 323.403 74.5074C323.403 69.1989 321.373 63.9048 317.328 59.8478C313.283 55.7909 307.971 53.7768 302.674 53.7768Z" fill="#170839"/>
<path fill-rule="evenodd" clip-rule="evenodd" d="M317.328 91.5984C316.651 90.9222 316.651 89.8288 317.328 89.1527C318.005 88.4765 319.099 88.4765 319.775 89.1527L325.504 94.8784C326.181 95.5546 326.181 96.6479 325.504 97.3241C324.828 98.0003 323.734 98.0003 323.057 97.3241L317.328 91.5984Z" fill="#170839"/>
<path fill-rule="evenodd" clip-rule="evenodd" d="M323.302 99.9999C321.949 98.6476 321.949 96.4465 323.302 95.0942C324.655 93.7419 326.843 93.7419 328.196 95.0942L346.651 113.537C348.004 114.89 348.004 117.076 346.651 118.429C345.298 119.781 343.11 119.781 341.756 118.429L323.302 99.9999Z" fill="#170839"/>
<path fill-rule="evenodd" clip-rule="evenodd" d="M314.636 62.5381C314.19 62.0921 314.19 61.3728 314.636 60.9268C315.082 60.4808 315.802 60.4808 316.263 60.9268C318.091 62.7539 319.487 64.883 320.423 67.1417C321.387 69.4866 321.877 71.9898 321.877 74.4931C321.877 76.277 321.632 78.0752 321.128 79.8016C320.956 80.4058 320.322 80.7655 319.718 80.5928C319.113 80.4202 318.753 79.7872 318.926 79.183C319.372 77.658 319.588 76.0756 319.588 74.4931C319.588 72.292 319.156 70.0909 318.307 68.0049C317.472 66.0339 316.263 64.1637 314.636 62.5381ZM316.91 83.6284C317.256 83.0961 317.961 82.9378 318.494 83.2831C319.027 83.6284 319.185 84.3333 318.839 84.8656C318.48 85.441 318.076 85.9877 317.63 86.5344C317.184 87.0811 316.723 87.5846 316.248 88.0737C315.802 88.5197 315.082 88.5197 314.622 88.0737C314.175 87.6277 314.175 86.9084 314.622 86.4624C315.068 86.0165 315.471 85.5705 315.845 85.1101C316.234 84.621 316.579 84.1319 316.91 83.6284ZM290.711 86.4481C291.158 86.894 291.158 87.6133 290.711 88.0593C290.265 88.5053 289.545 88.5053 289.099 88.0593C287.271 86.2323 285.875 84.1031 284.939 81.8445C283.96 79.4995 283.471 76.9963 283.471 74.4931C283.471 73.3278 283.586 72.1481 283.802 70.9828C284.018 69.8319 284.334 68.6954 284.766 67.5876C284.997 66.9978 285.644 66.7101 286.235 66.9259C286.825 67.1561 287.113 67.8034 286.897 68.3933C286.522 69.3572 286.249 70.3642 286.047 71.3856C285.86 72.3927 285.76 73.4429 285.76 74.4931C285.76 76.7085 286.191 78.9097 287.041 80.9813C287.861 82.9666 289.085 84.8224 290.711 86.4481ZM288.941 64.6241C288.567 65.1276 287.861 65.2571 287.343 64.883C286.839 64.5234 286.71 63.8041 287.084 63.2862C287.386 62.8689 287.703 62.4517 288.034 62.0633L288.092 62.0058C288.437 61.603 288.768 61.2433 289.085 60.9268C289.531 60.4808 290.251 60.4808 290.697 60.9268C291.143 61.3728 291.143 62.0921 290.697 62.5381C290.352 62.8689 290.064 63.1854 289.819 63.4876L289.761 63.5451C289.473 63.9048 289.2 64.2644 288.941 64.6241Z" fill="white"/>
<path fill-rule="evenodd" clip-rule="evenodd" d="M315.428 21.1631H370.129C370.834 21.1631 371.396 21.7386 371.396 22.4291C371.396 23.1196 370.82 23.6951 370.129 23.6951H315.428C314.737 23.6951 314.161 23.1196 314.161 22.4291C314.161 21.7242 314.737 21.1631 315.428 21.1631Z" fill="#EFEEF8"/>
<path fill-rule="evenodd" clip-rule="evenodd" d="M315.428 29.1187H370.129C370.834 29.1187 371.396 29.6942 371.396 30.3847C371.396 31.0753 370.82 31.6507 370.129 31.6507H315.428C314.737 31.6507 314.161 31.0753 314.161 30.3847C314.161 29.6798 314.737 29.1187 315.428 29.1187Z" fill="#EFEEF8"/>
<path fill-rule="evenodd" clip-rule="evenodd" d="M359.808 37.88H370.129C370.835 37.88 371.396 38.4554 371.396 39.146C371.396 39.8365 370.82 40.412 370.129 40.412H359.808C359.117 40.412 358.541 39.8365 358.541 39.146C358.541 38.4554 359.103 37.88 359.808 37.88Z" fill="#EFEEF8"/>
<path fill-rule="evenodd" clip-rule="evenodd" d="M359.808 46.8714H370.129C370.835 46.8714 371.396 47.4468 371.396 48.1374C371.396 48.8423 370.82 49.4034 370.129 49.4034H359.808C359.117 49.4034 358.541 48.8279 358.541 48.1374C358.541 47.4468 359.103 46.8714 359.808 46.8714Z" fill="#EFEEF8"/>
<path fill-rule="evenodd" clip-rule="evenodd" d="M359.808 55.8628H370.129C370.835 55.8628 371.396 56.4383 371.396 57.1288C371.396 57.8194 370.82 58.3948 370.129 58.3948H359.808C359.117 58.3948 358.541 57.8194 358.541 57.1288C358.541 56.4383 359.103 55.8628 359.808 55.8628Z" fill="#EFEEF8"/>
<path fill-rule="evenodd" clip-rule="evenodd" d="M359.808 64.8687H370.129C370.835 64.8687 371.396 65.4441 371.396 66.1346C371.396 66.8252 370.82 67.4006 370.129 67.4006H359.808C359.117 67.4006 358.541 66.8252 358.541 66.1346C358.541 65.4297 359.103 64.8687 359.808 64.8687Z" fill="#EFEEF8"/>
<path fill-rule="evenodd" clip-rule="evenodd" d="M359.808 73.86H370.129C370.835 73.86 371.396 74.4355 371.396 75.126C371.396 75.831 370.82 76.392 370.129 76.392H359.808C359.117 76.392 358.541 75.8166 358.541 75.126C358.541 74.4355 359.103 73.86 359.808 73.86Z" fill="#EFEEF8"/>
<path fill-rule="evenodd" clip-rule="evenodd" d="M359.808 82.8515H370.129C370.835 82.8515 371.396 83.4269 371.396 84.1175C371.396 84.8224 370.82 85.3834 370.129 85.3834H359.808C359.117 85.3834 358.541 84.808 358.541 84.1175C358.541 83.4269 359.103 82.8515 359.808 82.8515Z" fill="#EFEEF8"/>
<path fill-rule="evenodd" clip-rule="evenodd" d="M343.93 91.8573H370.129C370.834 91.8573 371.396 92.4328 371.396 93.1233C371.396 93.8138 370.82 94.3893 370.129 94.3893H343.93C343.239 94.3893 342.663 93.8138 342.663 93.1233C342.663 92.4184 343.239 91.8573 343.93 91.8573Z" fill="#EFEEF8"/>
<path fill-rule="evenodd" clip-rule="evenodd" d="M346.536 82.8515H354.266C354.971 82.8515 355.533 83.4269 355.533 84.1175C355.533 84.8224 354.957 85.3834 354.266 85.3834H346.536C345.845 85.3834 345.269 84.808 345.269 84.1175C345.269 83.4269 345.83 82.8515 346.536 82.8515Z" fill="#EFEEF8"/>
<path fill-rule="evenodd" clip-rule="evenodd" d="M349.99 73.86H353.891C354.582 73.86 355.158 74.4355 355.158 75.126C355.158 75.831 354.582 76.392 353.891 76.392H349.99C349.299 76.392 348.724 75.8166 348.724 75.126C348.724 74.4355 349.299 73.86 349.99 73.86Z" fill="#EFEEF8"/>
<path fill-rule="evenodd" clip-rule="evenodd" d="M352.711 64.8687H355.561C356.267 64.8687 356.828 65.4441 356.828 66.1346C356.828 66.8252 356.252 67.4006 355.561 67.4006H352.711C352.006 67.4006 351.444 66.8252 351.444 66.1346C351.444 65.4297 352.006 64.8687 352.711 64.8687Z" fill="#EFEEF8"/>
<path fill-rule="evenodd" clip-rule="evenodd" d="M245.352 162.192H251.47C252.593 162.192 253.514 163.113 253.514 164.235V170.349C253.514 171.471 252.593 172.392 251.47 172.392H245.352C244.23 172.392 243.308 171.471 243.308 170.349V164.235C243.308 163.113 244.23 162.192 245.352 162.192Z" fill="#80BBE7"/>
<path fill-rule="evenodd" clip-rule="evenodd" d="M266.254 162.192H272.372C273.495 162.192 274.416 163.113 274.416 164.235V170.349C274.416 171.471 273.495 172.392 272.372 172.392H266.254C265.131 172.392 264.21 171.471 264.21 170.349V164.235C264.21 163.113 265.131 162.192 266.254 162.192Z" fill="white"/>
<path fill-rule="evenodd" clip-rule="evenodd" d="M287.156 162.192H293.274C294.396 162.192 295.318 163.113 295.318 164.235V170.349C295.318 171.471 294.396 172.392 293.274 172.392H287.156C286.033 172.392 285.112 171.471 285.112 170.349V164.235C285.112 163.113 286.033 162.192 287.156 162.192Z" fill="#80BBE7"/>
<path fill-rule="evenodd" clip-rule="evenodd" d="M308.057 162.192H314.175C315.298 162.192 316.205 163.113 316.205 164.235V170.349C316.205 171.471 315.284 172.392 314.175 172.392H308.057C306.935 172.392 306.013 171.471 306.013 170.349V164.235C306.028 163.113 306.935 162.192 308.057 162.192Z" fill="#80BBE7"/>
<path fill-rule="evenodd" clip-rule="evenodd" d="M476.494 247.531C467.598 255.631 466.216 256.595 466.216 256.595C466.216 256.595 460.343 267.744 462.603 267.73C464.863 267.715 466.663 265.687 466.663 265.687C466.663 265.687 468.865 268.492 470.852 267.327C472.824 266.161 473.875 265.715 473.875 265.715C473.875 265.715 476.149 267.974 478.02 266.507C479.892 265.039 488.831 255.386 488.831 255.386L500.649 247.646L495.942 243.402L476.494 247.531Z" fill="#E98DAF"/>
<path fill-rule="evenodd" clip-rule="evenodd" d="M620.618 485.523C620.445 486.775 618.977 493.047 619.006 493.206C619.265 495.047 619.711 498.759 619.711 498.759C619.711 498.759 616.098 502.916 612.73 503.521C609.376 504.125 594.131 504.801 593.944 503.967C593.757 503.132 597.759 496.558 597.759 496.558C597.759 496.558 602.092 492.932 602.667 484.545C603.243 476.144 620.618 485.523 620.618 485.523Z" fill="#F3C6D4"/>
<path fill-rule="evenodd" clip-rule="evenodd" d="M600.825 498.255L602.696 497.594C602.696 497.594 606.928 499.823 612.24 498.011C617.566 496.198 619.006 493.206 619.006 493.206C619.006 493.206 619.265 492.602 619.841 492.602C620.417 492.602 620.589 492.602 621.093 492.602C621.597 492.602 622.979 492.817 623.555 494.184C624.131 495.551 625.325 503.852 623.699 508.455C622.072 513.059 619.769 512.455 619.769 512.455C619.769 512.455 610.671 509.779 604.539 511.937C598.407 514.095 592.792 516.353 592.792 516.353C592.792 516.353 593.08 504.139 600.825 498.255Z" fill="#0E0226"/>
<path fill-rule="evenodd" clip-rule="evenodd" d="M559.439 515.087L558.762 513.102C558.762 513.102 558.762 511.591 558.762 510.699C558.762 509.793 559.137 507.088 561.757 507.088C564.377 507.088 569.472 507.088 571.804 507.088C574.136 507.088 586.732 500.686 596.406 492.817C596.406 492.817 597.082 492.012 598.104 492.601C599.112 493.191 602.207 495.651 602.524 495.91C602.84 496.169 602.869 497.234 602.696 497.593C602.509 497.953 593.555 515.691 593.555 515.691C593.555 515.691 567.169 519.144 559.439 515.087Z" fill="#1A0F44"/>
<path fill-rule="evenodd" clip-rule="evenodd" d="M558.762 513.102C558.762 513.102 558.172 513.591 558.172 514.138C558.172 514.684 558.172 515.634 558.172 516.066C558.172 516.497 559.338 518.526 561.944 518.526C564.549 518.526 586.199 518.526 589.827 518.526C593.469 518.526 597.298 517.605 599.788 516.353C602.264 515.116 606.972 513.721 606.972 513.721C606.972 513.721 607.634 513.49 607.634 514.641C607.634 515.778 607.634 516.296 607.634 516.857C607.634 517.403 607.288 518.914 609.563 518.914C611.837 518.914 622.101 518.914 623.123 518.914C624.159 518.914 625.34 518.324 625.34 516.209C625.34 514.095 625.34 512.095 625.34 510.771C625.34 509.462 624.548 508.412 623.684 508.412C622.821 508.412 617.624 508.412 613.248 508.412C608.872 508.412 605.388 509.491 599.947 512.052C594.505 514.613 589.539 515.375 583.868 515.375C578.196 515.375 571.013 515.375 568.263 515.375C565.514 515.404 560.619 514.785 558.762 513.102Z" fill="#0E0226"/>
<path fill-rule="evenodd" clip-rule="evenodd" d="M679.768 485.523C679.58 486.775 678.127 493.047 678.155 493.206C678.414 495.047 678.861 498.759 678.861 498.759C678.861 498.759 675.248 502.916 671.879 503.521C668.525 504.125 653.281 504.801 653.093 503.967C652.906 503.132 656.908 496.558 656.908 496.558C656.908 496.558 661.241 492.932 661.817 484.545C662.407 476.144 679.768 485.523 679.768 485.523Z" fill="#F3C6D4"/>
<path fill-rule="evenodd" clip-rule="evenodd" d="M659.974 498.255L661.846 497.594C661.846 497.594 666.078 499.823 671.39 498.011C676.716 496.198 678.155 493.206 678.155 493.206C678.155 493.206 678.414 492.602 678.99 492.602C679.566 492.602 679.753 492.602 680.243 492.602C680.747 492.602 682.128 492.817 682.704 494.184C683.28 495.551 684.475 503.852 682.834 508.455C681.207 513.059 678.904 512.455 678.904 512.455C678.904 512.455 669.821 509.779 663.688 511.937C657.556 514.095 651.942 516.353 651.942 516.353C651.942 516.353 652.244 504.139 659.974 498.255Z" fill="#0E0226"/>
<path fill-rule="evenodd" clip-rule="evenodd" d="M618.588 515.087L617.912 513.102C617.912 513.102 617.912 511.591 617.912 510.699C617.912 509.793 618.286 507.088 620.906 507.088C623.526 507.088 628.622 507.088 630.954 507.088C633.286 507.088 645.882 500.686 655.555 492.817C655.555 492.817 656.232 492.012 657.254 492.601C658.276 493.191 661.356 495.651 661.673 495.91C661.99 496.169 662.018 497.234 661.846 497.593C661.659 497.953 652.705 515.691 652.705 515.691C652.705 515.691 626.319 519.144 618.588 515.087Z" fill="#1A0F44"/>
<path fill-rule="evenodd" clip-rule="evenodd" d="M617.912 513.102C617.912 513.102 617.322 513.591 617.322 514.138C617.322 514.684 617.322 515.634 617.322 516.066C617.322 516.497 618.488 518.526 621.093 518.526C623.699 518.526 645.349 518.526 648.977 518.526C652.618 518.526 656.448 517.605 658.938 516.353C661.428 515.116 666.121 513.721 666.121 513.721C666.121 513.721 666.783 513.49 666.783 514.641C666.783 515.778 666.783 516.296 666.783 516.857C666.783 517.403 666.438 518.914 668.712 518.914C670.987 518.914 681.25 518.914 682.272 518.914C683.309 518.914 684.489 518.324 684.489 516.209C684.489 514.095 684.489 512.095 684.489 510.771C684.489 509.462 683.697 508.412 682.834 508.412C681.984 508.412 676.773 508.412 672.397 508.412C668.021 508.412 664.538 509.491 659.096 512.052C653.655 514.613 648.689 515.375 643.017 515.375C637.345 515.375 630.162 515.375 627.413 515.375C624.678 515.404 619.769 514.785 617.912 513.102Z" fill="#0E0226"/>
<path fill-rule="evenodd" clip-rule="evenodd" d="M514.267 106.79C514.267 106.79 507.976 117.335 511.921 141.303C515.865 165.27 543.086 258.565 524.603 307.249C524.603 307.249 523.466 310.586 526.633 312.428C529.814 314.269 574.712 322.052 607.533 308.083C640.368 294.085 582.716 113.897 514.267 106.79Z" fill="#1B7FC2"/>
<path fill-rule="evenodd" clip-rule="evenodd" d="M601.545 489.882C601.545 489.882 608.901 494.342 621.338 491.652C621.338 491.652 624.505 490.472 625.21 487.192C625.916 483.912 649.149 288.403 651.971 253.689C654.792 218.989 633.559 197.783 601.055 175.513C568.551 153.229 595.758 172.046 593.239 170.622C585.177 200.445 575.72 219.622 575.72 219.622L575.648 234.325C575.648 235.332 576.152 236.281 576.382 237.231C586.286 276.577 587.452 307.982 588.949 347.559C589.007 348.71 588.373 317.851 589.079 351.012C589.798 384.186 597.313 479.567 597.788 483.322C598.263 487.063 599.904 489.523 601.545 489.882Z" fill="#170839"/>
<path fill-rule="evenodd" clip-rule="evenodd" d="M520.256 144.151L529.656 159.386C529.656 159.386 569.472 227.736 574.986 237.475C580.499 247.215 604.093 245.834 604.093 245.834L553.695 99.4244C553.695 99.4244 536.09 96.6335 529.267 96.7917C522.444 96.9356 518.053 107.38 518.053 107.38L520.256 144.151Z" fill="#170839"/>
<path fill-rule="evenodd" clip-rule="evenodd" d="M514.267 106.79C514.267 106.79 507.976 117.335 511.921 141.303C514.972 159.832 531.916 219.751 530.922 268.506C539.588 179.786 523.61 123.651 518.039 107.38C516.786 107.135 515.534 106.92 514.267 106.79Z" fill="#428FCD"/>
<path fill-rule="evenodd" clip-rule="evenodd" d="M660.147 490.012C660.147 490.012 666.985 493.824 679.408 491.134C679.408 491.134 682.575 489.954 683.28 486.674C683.985 483.394 693.285 417.836 696.106 383.136C698.927 348.422 722.521 218.212 660.219 175.499C597.903 132.786 584.472 206.473 584.472 206.473C584.472 206.473 642.599 230.929 644.01 296.128C645.421 361.327 655.915 479.697 656.39 483.438C656.865 487.192 658.506 489.652 660.147 490.012Z" fill="#221758"/>
<path fill-rule="evenodd" clip-rule="evenodd" d="M665.257 491.609C668.511 492.213 673.275 492.458 679.408 491.134C679.408 491.134 682.575 489.954 683.28 486.674C683.985 483.394 693.285 417.836 696.106 383.136C698.237 356.809 712.329 275.498 691.802 219.133C691.514 219.334 659.442 241.791 640.987 273.311C642.743 280.289 643.837 287.885 644.01 296.128C644.255 307.134 644.744 319.65 645.406 332.871C653.324 324.383 663.847 312.946 669.187 306.544C678.414 295.466 688.808 299.394 692.493 304.702C696.178 310.011 682.1 443.559 680.257 460.621C678.976 472.619 670.296 485.207 665.257 491.609Z" fill="#22134F"/>
<path fill-rule="evenodd" clip-rule="evenodd" d="M504.392 69.7024C504.493 69.688 504.766 70.8389 505.904 72.7667L500.246 78.7226C500.246 78.7226 501.686 80.5496 503.759 82.6356C501.182 83.5276 498.98 85.0669 497.569 87.1242C497.569 87.1242 491.494 105.812 493.265 107.625C493.207 107.697 493.135 107.783 493.078 107.855C482.137 120.759 475.429 116.487 474.062 115.321C472.694 114.17 465.972 108.013 465.252 107.869C464.532 107.725 461.941 110.79 460.185 109.308C458.429 107.826 449.935 97.4535 440.694 82.8658C431.452 68.2781 436.663 51.475 436.663 51.475C459.206 33.19 477.934 67.6307 480.194 61.8475C482.454 56.0642 488.932 55.5319 492.516 61.9482C493.02 62.8401 504.248 68.7529 504.392 69.7024Z" fill="#F3C6D4"/>
<path fill-rule="evenodd" clip-rule="evenodd" d="M504.392 69.7024C504.493 69.688 504.766 70.8389 505.904 72.7667L500.246 78.7226C500.246 78.7226 501.686 80.5496 503.759 82.6356C503.125 82.8514 502.506 83.1104 501.931 83.4125C501.83 82.3335 501.643 81.5279 501.355 81.197C499.814 79.4275 496.748 75.6295 496.748 75.6295C496.748 75.6295 492.459 77.6292 491.652 72.8961C490.846 68.163 487.204 63.5594 483.404 64.3075C479.604 65.0556 481.777 70.0045 481.777 70.0045L490.789 82.9809L489.292 98.4318C489.292 98.4318 475.213 100.964 478.107 94.9791C481 88.98 473.601 84.362 465.065 74.68C456.528 64.9981 451.792 66.0339 449.604 67.5301C448.237 68.4652 441.889 72.7235 437.297 75.7878C434.979 69.0838 434.965 62.5524 435.468 57.9488C440.622 53.9926 447.935 49.7342 454.758 46.5405C468.563 49.576 478.582 65.962 480.208 61.8475C482.483 56.0642 488.946 55.5319 492.531 61.9482C493.02 62.8401 504.248 68.7529 504.392 69.7024Z" fill="#E98DAF"/>
<path fill-rule="evenodd" clip-rule="evenodd" d="M507.415 69.688C507.415 69.688 511.806 69.9757 515.145 70.1196C518.485 70.2634 521.234 89.7569 521.234 89.7569L515.534 98.4174L514.21 100.431L509.891 106.977L509.488 104.949C509.488 104.949 504.968 101.453 502.132 105.38C499.296 109.308 492.171 98.7771 492.171 98.7771C492.171 98.7771 490.89 75.6871 507.415 69.688Z" fill="#F3C6D4"/>
<path fill-rule="evenodd" clip-rule="evenodd" d="M507.415 69.688C507.415 69.688 511.806 69.9757 515.145 70.1196C518.485 70.2634 521.234 89.7569 521.234 89.7569L515.534 98.4174L514.21 100.431L509.891 106.992L509.488 104.963C509.488 104.963 504.968 101.467 502.132 105.395C501.427 106.373 500.448 106.459 499.397 106.028L501.355 97.9139C501.355 97.9139 502.895 82.9665 501.355 81.197C500.419 80.118 498.922 78.291 497.886 77.025C500.102 73.9032 503.169 71.2273 507.415 69.688Z" fill="#E98DAF"/>
<path fill-rule="evenodd" clip-rule="evenodd" d="M472.363 69.6461C472.349 69.6461 462.056 74.6669 453.923 59.2304C453.923 59.2304 443.372 70.3941 436.505 73.1995C436.376 73.257 436.217 73.3002 436.073 73.3433L436.505 73.1995C436.505 73.1995 433.569 73.3002 430.344 71.8903C426.241 70.4229 421.03 67.3443 417.792 60.856C411.789 48.8579 418.943 42.7437 425.407 43.5637C425.407 43.5637 435.094 22.4591 440.521 16.2298C445.948 10.0005 458.645 12.662 458.645 12.662C458.645 12.662 456.802 7.23837 458.99 5.97238C461.178 4.70639 473.069 7.05135 477.69 20.8046C477.69 20.8046 486.917 19.2941 491.782 23.9984C496.619 28.6883 507.387 69.4878 507.444 69.7036C507.675 72.3075 506.652 74.9258 504.018 75.0265C499.988 75.0409 495.712 73.8181 492.66 69.7324C492.66 69.7324 489.249 57.5616 483.246 59.403C483.246 59.403 478.136 59.4462 480.525 68.0204C480.525 68.0204 482.584 71.7321 485.42 74.2065C488.256 76.681 496.015 81.8312 501.413 94.4192C506.811 107.007 495.41 114.977 492.286 118.66C489.162 122.357 483.908 125.235 480.137 122.027C476.365 118.833 467.843 111.625 466.548 110.532C465.267 109.439 464.964 108.244 465.267 107.885C465.267 107.885 470.766 102.058 474.926 98.059C479.1 94.0452 482.354 91.4557 482.354 86.8808C482.354 82.306 482.238 78.695 478.035 74.0051C476.308 72.063 474.307 70.6531 472.363 69.6461Z" fill="#170839"/>
<path fill-rule="evenodd" clip-rule="evenodd" d="M453.923 59.2148C453.923 59.2148 443.372 70.3785 436.505 73.1839C436.376 73.2414 436.217 73.2846 436.073 73.3277L436.505 73.1839C436.505 73.1839 433.568 73.2846 430.344 71.8747C426.241 70.4073 421.03 67.3286 417.791 60.8404C411.789 48.8423 418.943 42.7281 425.406 43.5481C425.406 43.5481 435.094 22.4435 440.521 16.2142C445.948 9.98494 458.645 12.6464 458.645 12.6464C458.645 12.6464 456.802 7.22278 458.99 5.95678C461.178 4.69079 473.069 7.03576 477.689 20.789C477.675 20.789 477.704 34.5279 453.923 59.2148Z" fill="#201049"/>
<path fill-rule="evenodd" clip-rule="evenodd" d="M416.51 57.8481C413.026 47.8352 419.504 42.8144 425.406 43.5481C425.406 43.5481 462.79 52.3525 467.872 7.99963C468.448 8.3449 469.023 8.71895 469.599 9.15054C470.089 27.493 464.604 61.4447 416.51 57.8481Z" fill="#22185A"/>
<path fill-rule="evenodd" clip-rule="evenodd" d="M458.198 90.0734C459.206 89.2246 460.717 89.354 461.567 90.3611L463.582 92.7348C464.431 93.7419 464.302 95.2524 463.294 96.1012C462.286 96.95 460.775 96.8205 459.926 95.8135L457.91 93.4397C457.075 92.4327 457.191 90.9221 458.198 90.0734Z" fill="#170839"/>
<path fill-rule="evenodd" clip-rule="evenodd" d="M465.482 96.2595C466.965 94.9935 469.196 95.1805 470.463 96.6767C471.73 98.1585 471.528 100.388 470.045 101.654C468.548 102.92 466.332 102.733 465.065 101.237C463.798 99.7553 463.985 97.5255 465.482 96.2595Z" fill="#ED7792"/>
<path fill-rule="evenodd" clip-rule="evenodd" d="M458.673 85.3978C459.062 85.3115 459.307 84.923 459.22 84.5346C459.134 84.1462 458.745 83.9016 458.357 83.9879C458.342 83.9879 453.563 84.9374 452.037 89.1526C451.908 89.5267 452.095 89.9439 452.469 90.0877C452.843 90.2172 453.261 90.0302 453.39 89.6561C454.657 86.2034 458.659 85.4122 458.673 85.3978Z" fill="#170839"/>
<path fill-rule="evenodd" clip-rule="evenodd" d="M530.059 241.057C530.059 241.057 499.599 252.408 496.417 253.947C493.236 255.487 489.738 242.798 489.436 240.741C489.133 238.684 491.321 236.252 495.453 233.893C499.584 231.534 522.544 218.226 522.544 218.226L530.059 241.057Z" fill="white"/>
<path fill-rule="evenodd" clip-rule="evenodd" d="M534.838 240.122C523.696 244.309 504.378 251.588 501.643 252.912C497.756 254.782 493.481 239.302 493.121 236.785C492.761 234.267 495.424 231.303 500.477 228.426C503.327 226.801 513.533 220.888 521.853 216.068C521.853 216.068 529.296 210.904 530.404 199.51C531.527 188.116 535.442 135.865 535.442 135.865L565.96 149.431L571.373 157.401C571.373 157.401 559.928 206.876 555.437 218.37C550.96 229.879 544.713 236.411 534.838 240.122Z" fill="#170839"/>
<path fill-rule="evenodd" clip-rule="evenodd" d="M690.535 171.212C690.535 171.212 712.229 208.717 716.317 264.881C716.317 264.881 716.677 266.78 714.503 267.701C712.329 268.621 694.163 267.758 672.815 293.941C651.467 320.124 617.35 343.66 597.802 340.582C597.802 340.582 595.686 340.567 595.427 337.143C595.168 333.719 591.065 180.06 528.23 124.528C528.23 124.528 522.127 119.522 522.357 111.02C522.573 102.532 620.791 67.7027 690.535 171.212Z" fill="#0065AA"/>
<path fill-rule="evenodd" clip-rule="evenodd" d="M672.829 209.609L668.28 224.83C668.28 224.83 658.592 225.304 633.444 174.895C633.444 174.895 623.44 155.473 594.563 149.546L607.418 131.261C607.418 131.261 662.306 140.943 662.018 145.633C661.759 150.309 672.829 209.609 672.829 209.609Z" fill="#1B7FC2"/>
<path fill-rule="evenodd" clip-rule="evenodd" d="M544.439 169.514L562.563 157.358C564.377 156.135 567.097 156.48 568.58 158.12L600.249 193.094C601.732 194.734 601.458 197.079 599.644 198.301L581.535 210.458C579.707 211.681 577.001 211.335 575.518 209.695L543.849 174.722C542.338 173.082 542.611 170.737 544.439 169.514Z" fill="#170839"/>
<path fill-rule="evenodd" clip-rule="evenodd" d="M541.805 171.284L559.928 159.128C561.742 157.905 564.448 158.25 565.946 159.89L597.615 194.863C599.097 196.503 598.824 198.848 597.01 200.071L578.887 212.227C577.059 213.45 574.352 213.105 572.87 211.465L541.215 176.506C539.718 174.852 539.991 172.507 541.805 171.284Z" fill="#221758"/>
<path fill-rule="evenodd" clip-rule="evenodd" d="M544.382 175.557L547.304 173.6C547.592 173.399 548.038 173.456 548.268 173.73L556.114 182.376C556.358 182.635 556.315 183.023 556.013 183.21L553.091 185.167C552.803 185.368 552.357 185.311 552.126 185.037L544.281 176.391C544.051 176.132 544.094 175.758 544.382 175.557Z" fill="#674F9B"/>
<path fill-rule="evenodd" clip-rule="evenodd" d="M546.843 175.557C547.606 175.039 548.715 175.197 549.319 175.902C549.924 176.607 549.794 177.599 549.017 178.117C548.254 178.635 547.146 178.477 546.541 177.772C545.951 177.067 546.08 176.075 546.843 175.557Z" fill="#D3EBFA"/>
<path fill-rule="evenodd" clip-rule="evenodd" d="M549.837 178.923C550.6 178.405 551.709 178.563 552.313 179.268C552.918 179.973 552.788 180.966 552.011 181.484C551.248 182.002 550.14 181.843 549.535 181.139C548.945 180.419 549.074 179.427 549.837 178.923Z" fill="#D3EBFA"/>
<path fill-rule="evenodd" clip-rule="evenodd" d="M550.312 179.47C550.744 179.182 551.378 179.268 551.723 179.671C552.069 180.074 551.982 180.635 551.55 180.923C551.119 181.21 550.485 181.124 550.14 180.721C549.809 180.333 549.881 179.757 550.312 179.47Z" fill="white"/>
<path fill-rule="evenodd" clip-rule="evenodd" d="M547.275 176.075C547.736 175.772 548.412 175.859 548.772 176.29C549.132 176.722 549.06 177.312 548.599 177.628C548.139 177.93 547.477 177.844 547.102 177.412C546.743 176.981 546.815 176.377 547.275 176.075Z" fill="white"/>
<path fill-rule="evenodd" clip-rule="evenodd" d="M552.702 182.117C553.163 181.8 553.825 181.901 554.199 182.333C554.559 182.764 554.487 183.354 554.026 183.67C553.566 183.973 552.889 183.886 552.529 183.455C552.155 183.023 552.242 182.433 552.702 182.117Z" fill="#D3EBFA"/>
<path fill-rule="evenodd" clip-rule="evenodd" d="M524.2 56.7548C523.84 56.9706 516.311 58.9127 515.045 59.4882C513.778 60.0636 513.375 62.7394 513.101 67.2999C512.828 71.8604 509.114 105.711 508.941 107.639C508.768 109.567 509.459 110.732 511.129 111.293C512.799 111.869 532.06 118.788 532.06 118.788L524.2 56.7548Z" fill="#170839"/>
<path fill-rule="evenodd" clip-rule="evenodd" d="M628.478 152.093C628.478 152.093 599.371 171.37 596.017 173.168C592.663 174.967 601.487 186.015 603.099 187.569C604.712 189.137 608.195 188.763 612.859 186.677C617.523 184.577 643.578 173.039 643.578 173.039L628.478 152.093Z" fill="white"/>
<path fill-rule="evenodd" clip-rule="evenodd" d="M641.477 140.814C641.477 140.814 603.402 166.033 599.025 168.378C594.649 170.723 606.18 185.181 608.282 187.224C610.383 189.267 614.946 188.792 621.036 186.044C627.139 183.311 661.227 168.205 661.227 168.205L641.477 140.814Z" fill="#221758"/>
<path fill-rule="evenodd" clip-rule="evenodd" d="M560.691 144.324C560.691 144.324 578.656 148.654 599.976 149.949C621.295 151.244 665.545 154.179 668.28 224.83C668.28 224.83 668.611 225.204 669.749 224.801C670.886 224.398 701.706 197.093 706.039 183.958C710.372 170.824 685.339 122.543 671.606 116.314C657.873 110.07 632.336 104.992 604.424 76.9818C576.512 48.9717 538.105 52.3237 538.105 52.3237L529.756 83.2399C529.756 83.2399 533.571 136.325 560.691 144.324Z" fill="#428FCD"/>
<path fill-rule="evenodd" clip-rule="evenodd" d="M660.521 185.857C664.797 195.769 667.661 208.487 668.295 224.83C668.295 224.83 668.626 225.204 669.763 224.801C670.9 224.398 701.72 197.093 706.053 183.958C707.781 178.707 704.815 167.817 699.748 156.236C699.734 164.695 698.611 174.075 694.379 178.75C688.434 185.311 671.116 186.059 660.521 185.857ZM673.894 117.666C673.103 117.105 672.34 116.645 671.62 116.314C657.887 110.07 632.35 104.992 604.438 76.9819C603.862 76.4064 603.272 75.8454 602.696 75.2843C602.898 75.7447 620.719 116.084 576.195 125.018C576.195 125.018 573.316 125.593 574.122 128.01C574.914 130.441 655.944 106.244 673.894 117.666Z" fill="#3388C9"/>
<path fill-rule="evenodd" clip-rule="evenodd" d="M539.718 52.2375C538.681 52.2806 538.12 52.3238 538.12 52.3238L533.024 71.2129L540.409 122.831L546.915 125.507C546.915 125.507 545.836 118.27 546.411 117.753C546.987 117.235 560.605 110.545 562.332 109.624C564.06 108.704 563.714 107.035 563.714 107.035C562.39 104.258 543.806 61.6317 539.718 52.2375Z" fill="#1B7FC2"/>
<path fill-rule="evenodd" clip-rule="evenodd" d="M524.445 50.7844C524.445 50.7844 522.703 51.5037 522.156 53.5178C521.623 55.5463 522.386 97.8132 522.573 102.532C522.76 107.236 541.747 131.304 546.455 136.886C551.176 142.454 558.143 143.82 560.691 144.338C560.691 144.338 560.907 144.324 560.936 144.108C560.965 143.892 553.537 140.828 551.277 137.39C549.017 133.966 545.101 119.277 544.641 117.134C544.641 117.134 557.697 110.847 559.943 109.581C562.203 108.315 562.548 107.279 561.699 105.812C560.85 104.345 539.631 54.194 538.105 52.3381C536.58 50.4679 531.023 50.0075 524.445 50.7844Z" fill="#D3EBFA"/>
<path fill-rule="evenodd" clip-rule="evenodd" d="M463.165 13.3082C463.452 13.5096 463.524 13.9268 463.323 14.2145C463.121 14.5022 462.704 14.5742 462.416 14.3727C462.402 14.3584 455.247 9.22246 443.76 11.366C443.4 11.4379 443.069 11.1934 442.997 10.8481C442.939 10.4884 443.17 10.1576 443.515 10.0856C455.55 7.84137 463.136 13.2938 463.165 13.3082Z" fill="#201049"/>
<path fill-rule="evenodd" clip-rule="evenodd" d="M435.756 70.695C436.073 70.5368 436.476 70.6662 436.634 70.9971C436.793 71.3136 436.663 71.7164 436.347 71.8747C436.303 71.8891 424.096 78.1471 416.409 63.8615C416.237 63.545 416.352 63.1422 416.668 62.984C416.985 62.8113 417.388 62.9264 417.547 63.2573C424.629 76.4064 435.728 70.7238 435.756 70.695Z" fill="#201049"/>
<path fill-rule="evenodd" clip-rule="evenodd" d="M595.312 174.104C593.383 173.413 589.381 171.241 588.316 170.708C587.121 170.119 577.131 167.874 577.131 167.874L582.5 173.83C582.5 173.83 566.09 180.98 562.505 183.814C558.921 186.648 561.166 187.986 564.29 187.986C567.414 187.986 567.428 187.986 567.428 187.986C567.428 187.986 566.824 193.352 570.854 193.496C574.885 193.64 575.173 193.496 575.173 193.496C575.173 193.496 576.67 197.97 579.952 197.525C583.234 197.079 588.906 195.741 595.47 192.015C600.782 189.008 602.178 187.454 602.523 186.965C600.379 184.548 594.649 177.038 595.312 174.104Z" fill="#F2BBC9"/>
<path fill-rule="evenodd" clip-rule="evenodd" d="M595.312 174.104C594.765 173.917 594.059 173.6 593.296 173.24C592.951 179.153 597.543 183.843 590.244 187.742C582.212 192.029 576.958 190.921 567.817 182.203C567.4 181.915 566.982 181.642 566.579 181.383C564.794 182.333 563.326 183.196 562.52 183.829C558.935 186.663 561.181 188.001 564.305 188.001C567.428 188.001 567.443 188.001 567.443 188.001C567.443 188.001 566.838 193.367 570.869 193.511C574.899 193.655 575.187 193.511 575.187 193.511C575.187 193.511 576.684 197.985 579.966 197.539C583.249 197.093 588.92 195.755 595.484 192.029C600.796 189.022 602.192 187.469 602.538 186.979C600.379 184.548 594.649 177.038 595.312 174.104Z" fill="#E98DAF"/>
<path fill-rule="evenodd" clip-rule="evenodd" d="M356.828 194.906H149.524C139.203 194.906 130.753 201.97 130.753 210.602V518.554H375.614V210.602C375.599 201.97 367.149 194.906 356.828 194.906Z" fill="#3889C9"/>
<path fill-rule="evenodd" clip-rule="evenodd" d="M390.858 194.906H217.196C208.544 194.906 201.462 200.819 201.462 208.055V518.554H406.592V208.055C406.592 200.819 399.524 194.906 390.858 194.906Z" fill="#80BBE7"/>
<path fill-rule="evenodd" clip-rule="evenodd" d="M390.858 203.006H217.196C215.296 203.006 213.741 204.3 213.741 205.883V518.54H394.313V205.883C394.313 204.3 392.758 203.006 390.858 203.006Z" fill="white"/>
<path fill-rule="evenodd" clip-rule="evenodd" d="M280.361 203.006H327.707C329.924 203.006 331.723 204.516 331.723 206.358C331.723 208.199 329.924 209.71 327.707 209.71H280.361C278.144 209.71 276.345 208.199 276.345 206.358C276.345 204.516 278.144 203.006 280.361 203.006Z" fill="#221758"/>
<path fill-rule="evenodd" clip-rule="evenodd" d="M217.196 203.006H390.858C392.758 203.006 394.313 204.3 394.313 205.883V206.358H213.741V205.883C213.741 204.3 215.296 203.006 217.196 203.006Z" fill="#221758"/>
<path fill-rule="evenodd" clip-rule="evenodd" d="M280.361 442.048H327.707C329.924 442.048 331.723 443.559 331.723 445.4C331.723 447.241 329.924 448.752 327.707 448.752H280.361C278.144 448.752 276.345 447.241 276.345 445.4C276.345 443.559 278.144 442.048 280.361 442.048Z" fill="#221758"/>
<path fill-rule="evenodd" clip-rule="evenodd" d="M217.196 442.048H390.858C392.758 442.048 394.313 443.343 394.313 444.925V445.4H213.741V444.925C213.741 443.357 215.296 442.048 217.196 442.048Z" fill="#221758"/>
<path d="M254.896 253.487H213.741V318.125H254.896V253.487Z" fill="#F9B532"/>
<path d="M254.896 263.054H213.741V318.125H254.896V263.054Z" fill="#F59F3A"/>
<path d="M254.896 268.88H213.741V318.125H254.896V268.88Z" fill="white"/>
<path d="M254.896 268.88H213.741V318.125H254.896V268.88Z" fill="#FFF2D1"/>
<path fill-rule="evenodd" clip-rule="evenodd" d="M254.911 264.737H224.451C219.945 264.737 215.353 268.161 213.755 272.52V318.139H254.911V264.737Z" fill="#FCC749"/>
<path d="M254.911 253.487H226.754V310.629H254.911V253.487Z" fill="#F18D3D"/>
<path d="M254.911 263.054H226.754V310.629H254.911V263.054Z" fill="#EE7E40"/>
<path d="M254.911 268.88H226.754V310.629H254.911V268.88Z" fill="#F2BCC2"/>
<path d="M254.911 268.88H226.754V310.629H254.911V268.88Z" fill="#F2B2A5"/>
<path d="M254.911 264.737H226.754V310.629H254.911V264.737Z" fill="#F39A4C"/>
<path fill-rule="evenodd" clip-rule="evenodd" d="M309.137 253.487H246.231C241.394 253.487 237.421 257.443 237.421 262.291V318.125H309.137V253.487Z" fill="#F9B532"/>
<path fill-rule="evenodd" clip-rule="evenodd" d="M309.137 263.054H251.111C246.274 263.054 242.301 267.01 242.301 271.858V318.125H309.123V263.054H309.137Z" fill="#F59F3A"/>
<path fill-rule="evenodd" clip-rule="evenodd" d="M246.072 318.125V276.045C246.072 272.103 249.297 268.88 253.241 268.88H309.137V318.125H246.072Z" fill="white"/>
<path fill-rule="evenodd" clip-rule="evenodd" d="M250.448 318.125L261.648 273.527C262.08 271.83 262.972 270.233 264.152 268.88H309.152V318.125H250.448Z" fill="#FFF2D1"/>
<path fill-rule="evenodd" clip-rule="evenodd" d="M309.137 264.737H278.677C273.84 264.737 268.874 268.693 267.665 273.542L256.465 318.139H309.137V264.737Z" fill="#FCC749"/>
<path d="M309.152 253.487H280.995V310.629H309.152V253.487Z" fill="#F18D3D"/>
<path d="M309.152 263.054H280.995V310.629H309.152V263.054Z" fill="#EE7E40"/>
<path d="M309.152 268.88H280.995V310.629H309.152V268.88Z" fill="#F2BCC2"/>
<path d="M309.152 268.88H280.995V310.629H309.152V268.88Z" fill="#F2B2A5"/>
<path d="M309.152 264.737H280.995V310.629H309.152V264.737Z" fill="#F39A4C"/>
<path fill-rule="evenodd" clip-rule="evenodd" d="M363.378 253.487H300.471C295.634 253.487 291.661 257.443 291.661 262.291V318.125H363.378V253.487Z" fill="#F9B532"/>
<path fill-rule="evenodd" clip-rule="evenodd" d="M363.378 263.054H305.351C300.514 263.054 296.541 267.01 296.541 271.858V318.125H363.363V263.054H363.378Z" fill="#F59F3A"/>
<path fill-rule="evenodd" clip-rule="evenodd" d="M300.298 318.125V276.045C300.298 272.103 303.523 268.88 307.467 268.88H363.363V318.125H300.298Z" fill="white"/>
<path fill-rule="evenodd" clip-rule="evenodd" d="M304.675 318.125L315.874 273.527C316.306 271.83 317.198 270.233 318.379 268.88H363.378V318.125H304.675Z" fill="#FFF2D1"/>
<path fill-rule="evenodd" clip-rule="evenodd" d="M363.378 264.737H332.918C328.081 264.737 323.115 268.693 321.906 273.542L310.706 318.139H363.378V264.737Z" fill="#FCC749"/>
<path d="M363.378 253.487H335.221V310.629H363.378V253.487Z" fill="#F18D3D"/>
<path d="M363.378 263.054H335.221V310.629H363.378V263.054Z" fill="#EE7E40"/>
<path d="M363.378 268.88H335.221V310.629H363.378V268.88Z" fill="#F2BCC2"/>
<path d="M363.378 268.88H335.221V310.629H363.378V268.88Z" fill="#F2B2A5"/>
<path d="M363.378 264.737H335.221V310.629H363.378V264.737Z" fill="#F39A4C"/>
<path fill-rule="evenodd" clip-rule="evenodd" d="M353.085 351.745H459.393C464.23 351.745 468.203 347.789 468.203 342.941V262.277C468.203 257.429 464.244 253.473 459.393 253.473H455.075V249.373C455.075 248.035 453.981 246.956 452.656 246.956H420.541C419.216 246.956 418.122 248.049 418.122 249.373V253.473H353.1C348.263 253.473 344.29 257.429 344.29 262.277V342.941C344.275 347.789 348.249 351.745 353.085 351.745Z" fill="#F9B532"/>
<path fill-rule="evenodd" clip-rule="evenodd" d="M353.085 351.745H459.393C464.23 351.745 468.203 347.789 468.203 342.941V263.975C467.022 263.385 465.698 263.054 464.287 263.054H459.969V258.954C459.969 257.616 458.875 256.537 457.551 256.537H425.435C424.096 256.537 423.017 257.63 423.017 258.954V263.054H357.994C353.157 263.054 349.184 267.01 349.184 271.858V350.825C350.35 351.415 351.689 351.745 353.085 351.745Z" fill="#F59F3A"/>
<path fill-rule="evenodd" clip-rule="evenodd" d="M427.278 351.745H360.096C356.151 351.745 352.927 348.523 352.927 344.581V276.059C352.927 272.117 356.151 268.895 360.096 268.895H427.278C431.222 268.895 434.446 272.117 434.446 276.059V344.581C434.446 348.523 431.222 351.745 427.278 351.745Z" fill="white"/>
<path fill-rule="evenodd" clip-rule="evenodd" d="M427.278 351.745H360.096C356.151 351.745 352.927 348.523 352.927 344.581V335.561L368.502 273.542C368.934 271.844 369.827 270.247 371.007 268.895H427.278C431.222 268.895 434.446 272.117 434.446 276.059V344.581C434.446 348.523 431.222 351.745 427.278 351.745Z" fill="#FFF2D1"/>
<path fill-rule="evenodd" clip-rule="evenodd" d="M363.68 351.745H461.84C466.677 351.745 471.643 347.789 472.852 342.941L490.285 273.527C491.494 268.693 488.529 264.723 483.692 264.723H478.539L479.633 260.364C480.079 258.594 478.999 257.156 477.229 257.156H441.399C439.629 257.156 437.829 258.594 437.383 260.364L436.289 264.723H385.546C380.71 264.723 375.743 268.679 374.534 273.527L357.102 342.941C355.878 347.789 358.843 351.745 363.68 351.745Z" fill="#FCC749"/>
<path fill-rule="evenodd" clip-rule="evenodd" d="M468.203 277.368L454.268 332.842C453.045 337.676 448.093 341.646 443.256 341.646H434.446H357.418L357.087 342.955C355.878 347.789 358.843 351.76 363.68 351.76H427.263H459.379H461.826C466.663 351.76 471.629 347.804 472.838 342.955L490.271 273.542C491.48 268.708 488.514 264.737 483.678 264.737H478.524L479.618 260.378C480.064 258.609 478.985 257.17 477.214 257.17H470.621C471.845 258.767 472.305 260.997 471.687 263.442L468.203 277.368Z" fill="#F9B532"/>
<path d="M515.332 286.043H334.775V362.362H515.332V286.043Z" fill="white"/>
<path fill-rule="evenodd" clip-rule="evenodd" d="M280.361 362.377H327.707C329.924 362.377 331.723 363.887 331.723 365.729C331.723 367.57 329.909 369.081 327.707 369.081H280.361C278.144 369.081 276.345 367.57 276.345 365.729C276.345 363.873 278.144 362.377 280.361 362.377Z" fill="#221758"/>
<path fill-rule="evenodd" clip-rule="evenodd" d="M217.196 362.377H390.858C392.758 362.377 394.313 363.672 394.313 365.254V365.729H213.741V365.254C213.741 363.672 215.296 362.377 217.196 362.377Z" fill="#221758"/>
<path fill-rule="evenodd" clip-rule="evenodd" d="M338.23 282.691H401.338H401.395H448.741H448.798H511.906C513.807 282.691 515.347 283.986 515.347 285.569V286.043H452.757C452.757 287.885 450.943 289.395 448.741 289.395H401.395C399.193 289.395 397.379 287.885 397.379 286.043H334.789V285.569C334.775 283.986 336.329 282.691 338.23 282.691Z" fill="#221758"/>
<path fill-rule="evenodd" clip-rule="evenodd" d="M334.775 362.377V286.058H213.741V365.268C213.741 363.686 215.296 362.391 217.196 362.391H280.289C280.318 362.391 280.333 362.391 280.361 362.391H327.707C327.736 362.391 327.75 362.391 327.779 362.391H334.775V362.377Z" fill="#D3EBFA"/>
<path fill-rule="evenodd" clip-rule="evenodd" d="M135.23 278.562C114.559 255.674 99.1703 284.749 101.33 313.938C103.374 341.618 125.297 436.581 121.238 476.546H129.63C150.172 425.317 161.688 307.882 135.23 278.562Z" fill="#E84A5B"/>
<path fill-rule="evenodd" clip-rule="evenodd" d="M126.535 476.546C146.53 395.796 121.224 284.173 121.137 283.785C120.979 283.094 120.345 282.663 119.698 282.835C119.064 283.008 118.676 283.698 118.82 284.389C118.906 284.777 144.256 396.516 124.103 476.546H126.535Z" fill="#D8364B"/>
<path fill-rule="evenodd" clip-rule="evenodd" d="M84.2138 329.015C62.434 316.456 56.9351 343.847 65.4282 366.52C72.4674 385.294 103.561 440.854 115.322 476.546H126.391C127.341 427.23 109.938 343.847 84.2138 329.015Z" fill="#80BBE7"/>
<path fill-rule="evenodd" clip-rule="evenodd" d="M122.346 476.546C115.134 409.837 74.3531 337.316 74.2092 337.057C73.9213 336.554 73.3167 336.381 72.8417 336.697C72.3666 337 72.2227 337.676 72.5106 338.179C72.6545 338.438 113.191 410.485 120.389 476.546H122.346Z" fill="#428FCD"/>
<path fill-rule="evenodd" clip-rule="evenodd" d="M176.299 360.679C197.417 350.652 200.756 376.591 191.385 397.062C185.037 410.916 162.163 446.378 146.76 476.546H129.184C135.187 430.913 154.476 371.052 176.299 360.679Z" fill="#FCC749"/>
<path fill-rule="evenodd" clip-rule="evenodd" d="M135.446 476.546C150.431 421.26 184.965 369.153 185.095 368.937C185.397 368.477 185.973 368.376 186.39 368.707C186.808 369.023 186.908 369.656 186.606 370.117C186.462 370.333 152.303 421.893 137.346 476.546H135.446Z" fill="#F9B532"/>
<path fill-rule="evenodd" clip-rule="evenodd" d="M102.121 458.29H163.991C165.848 458.29 167.36 459.93 167.36 461.944V478.561C167.36 480.575 165.848 482.215 163.991 482.215H102.121C100.264 482.215 98.7528 480.575 98.7528 478.561V461.944C98.7528 459.945 100.264 458.29 102.121 458.29Z" fill="#28256C"/>
<path fill-rule="evenodd" clip-rule="evenodd" d="M112.73 471.813H153.368L163.991 482.229L155.311 518.54H133.056H110.787L102.121 482.229L112.73 471.813Z" fill="#28256C"/>
<path fill-rule="evenodd" clip-rule="evenodd" d="M163.991 482.229L162.206 489.696H103.906L102.121 482.229H163.991Z" fill="#221758"/>
<path fill-rule="evenodd" clip-rule="evenodd" d="M489.421 240.108C488.313 240.928 487.723 241.46 487.723 241.46C487.723 241.46 478.02 240.583 475.084 243.949C472.147 247.33 465.684 255.544 462.891 256.868C460.098 258.191 463.179 260.536 469.067 258.479C474.94 256.422 481.562 251.43 481.562 251.43C481.562 251.43 487.665 252.883 492.43 250.006C490.832 246.524 489.623 241.892 489.45 240.712C489.407 240.525 489.407 240.324 489.421 240.108Z" fill="#F2BBC9"/>
</svg>
