<svg width="13" height="19" viewBox="0 0 13 19" fill="none" xmlns="http://www.w3.org/2000/svg">
<path d="M11.1429 7.695V4.75C11.1429 2.09 9.1 0 6.5 0C3.9 0 1.85714 2.09 1.85714 4.75V7.695C0.742857 8.93 0 10.545 0 12.35C0 16.055 2.87857 19 6.5 19C10.1214 19 13 16.055 13 12.35C13 10.545 12.35 8.93 11.1429 7.695ZM7.42857 13.015V14.25C7.42857 14.82 7.05714 15.2 6.5 15.2C5.94286 15.2 5.57143 14.82 5.57143 14.25V13.015C4.92143 12.635 4.45714 11.78 4.73571 10.925C4.92143 10.26 5.47857 9.69 6.12857 9.5C7.33571 9.215 8.35714 10.165 8.35714 11.4C8.35714 12.065 7.98571 12.73 7.42857 13.015ZM9.28571 6.365C8.45 5.985 7.52143 5.7 6.5 5.7C5.47857 5.7 4.55 5.985 3.71429 6.365V4.75C3.71429 3.135 4.92143 1.9 6.5 1.9C8.07857 1.9 9.28571 3.135 9.28571 4.75V6.365Z" fill="white"/>
</svg>
