<svg width="158" height="35" viewBox="0 0 158 35" fill="none" xmlns="http://www.w3.org/2000/svg">
<path d="M23.5213 33.425H0L0 0L23.5213 0V7.51687L8.27334 7.51687V12.7286L23.1846 12.7286L23.1846 20.2454L8.27334 20.2454L8.27334 25.9081L23.5213 25.9081V33.425Z" fill="#FC0E28"/>
<path d="M62.8476 33.425H54.6905V11.6762L46.6756 33.425H43.0713L35.1039 11.6762V33.425H26.9467V0H38.2814L44.8735 18.1407L51.513 0H62.8476V33.425Z" fill="#161835"/>
<path d="M78.1553 28.5106H74.993V27.2755C74.1298 28.2965 72.8599 28.807 71.1832 28.807C70.1042 28.807 69.1331 28.4612 68.2699 27.7695C67.4233 27.0614 67 26.0898 67 24.8547C67 23.5703 67.415 22.6069 68.245 21.9647C69.0916 21.3224 70.071 21.0013 71.1832 21.0013C72.8931 21.0013 74.163 21.4871 74.993 22.4587V20.8531C74.993 20.2438 74.7523 19.758 74.2709 19.3957C73.7895 19.0334 73.1504 18.8523 72.3535 18.8523C71.0421 18.8523 69.8718 19.3216 68.8426 20.2603L67.6474 18.1606C69.075 16.9091 70.8263 16.2833 72.9014 16.2833C74.4452 16.2833 75.7068 16.6374 76.6862 17.3455C77.6656 18.0536 78.1553 19.2063 78.1553 20.8037V28.5106ZM72.4532 26.6826C73.6318 26.6826 74.4784 26.3368 74.993 25.6452V24.1631C74.4784 23.4714 73.6318 23.1256 72.4532 23.1256C71.8057 23.1256 71.2662 23.2903 70.8346 23.6197C70.403 23.9325 70.1872 24.3689 70.1872 24.9288C70.1872 25.4723 70.403 25.9004 70.8346 26.2133C71.2662 26.5262 71.8057 26.6826 72.4532 26.6826Z" fill="#161835"/>
<path d="M84.4543 28.5106H81.292V16.5797H84.4543V18.21C84.9025 17.6501 85.4752 17.189 86.1724 16.8267C86.8696 16.4645 87.5751 16.2833 88.2889 16.2833V19.3463C88.0731 19.2969 87.7826 19.2722 87.4174 19.2722C86.8862 19.2722 86.3218 19.4039 85.7242 19.6674C85.1266 19.9309 84.7033 20.252 84.4543 20.6308V28.5106Z" fill="#161835"/>
<path d="M102.018 28.5106H98.0586L94.8713 23.9161L93.4271 25.4476V28.5106H90.2648V12.0347H93.4271V21.8906L97.9839 16.5797H101.868L97.1124 21.9894L102.018 28.5106Z" fill="#161835"/>
<path d="M109.097 28.807C107.238 28.807 105.702 28.2306 104.49 27.0779C103.278 25.9251 102.672 24.4101 102.672 22.5328C102.672 20.7708 103.254 19.2887 104.416 18.0865C105.594 16.8844 107.088 16.2833 108.898 16.2833C110.69 16.2833 112.143 16.8926 113.255 18.1112C114.367 19.3134 114.923 20.8943 114.923 22.8539V23.5456H105.984C106.084 24.336 106.441 24.9947 107.055 25.5217C107.669 26.0486 108.466 26.3121 109.445 26.3121C109.977 26.3121 110.549 26.2051 111.163 25.991C111.794 25.7769 112.292 25.4887 112.657 25.1264L114.052 27.152C112.84 28.2553 111.188 28.807 109.097 28.807ZM111.861 21.4212C111.811 20.7461 111.537 20.1367 111.039 19.5933C110.558 19.0499 109.844 18.7782 108.898 18.7782C108.001 18.7782 107.304 19.0499 106.806 19.5933C106.308 20.1203 106.017 20.7296 105.934 21.4212H111.861Z" fill="#161835"/>
<path d="M121.241 28.807C120.129 28.807 119.283 28.527 118.702 27.9671C118.121 27.4072 117.83 26.6003 117.83 25.5464V19.3216H115.838V16.5797H117.83V13.3191H121.017V16.5797H123.458V19.3216H121.017V24.7065C121.017 25.0853 121.117 25.3982 121.316 25.6452C121.515 25.8922 121.781 26.0157 122.113 26.0157C122.611 26.0157 122.976 25.9004 123.209 25.6699L123.881 28.0412C123.3 28.5517 122.42 28.807 121.241 28.807Z" fill="#161835"/>
<path d="M128.783 28.5106H125.621V16.5797H128.783V28.5106Z" fill="#161835"/>
<path d="M143.199 28.5106H140.037V21.2977C140.037 19.8156 139.298 19.0746 137.821 19.0746C136.675 19.0746 135.762 19.5439 135.082 20.4826V28.5106H131.919V16.5797H135.082V18.1359C136.127 16.9008 137.53 16.2833 139.29 16.2833C140.584 16.2833 141.556 16.6209 142.203 17.2961C142.867 17.9712 143.199 18.9017 143.199 20.0873V28.5106Z" fill="#161835"/>
<path d="M125.03 13.1841C125.563 13.7831 126.189 14.0826 126.907 14.0826C127.649 14.0826 128.275 13.7831 128.785 13.1841C129.295 12.5579 129.55 11.8228 129.55 10.9787C129.55 10.1347 129.295 9.41317 128.785 8.81417C128.275 8.21518 127.649 7.91568 126.907 7.91568C126.189 7.91568 125.563 8.21518 125.03 8.81417C124.519 9.41317 124.264 10.1347 124.264 10.9787C124.264 11.8228 124.519 12.5579 125.03 13.1841Z" fill="#161835"/>
<path d="M68.3016 32.768C68.3016 32.0688 68.8683 31.5019 69.5674 31.5019H150.759C151.458 31.5019 152.025 32.0688 152.025 32.768C152.025 33.4673 151.458 34.0341 150.759 34.0341H69.5674C68.8683 34.0341 68.3016 33.4673 68.3016 32.768Z" fill="#FC0E28"/>
<path d="M150.833 34.0341C148.768 34.0341 146.307 34.2015 144.936 33.0212L145.949 32.0083C146.841 32.992 149.231 31.4767 150.833 31.4767C151.725 31.4767 152.494 31.239 153.138 30.7636C153.799 30.3046 154.129 29.5423 154.129 28.4767V27.2718C153.138 28.5177 151.907 29.1406 150.437 29.1406C148.884 29.1406 147.611 28.616 146.62 27.5669C145.645 26.5013 145.158 25.0095 145.158 23.0915C145.158 21.1898 145.645 19.7062 146.62 18.6406C147.611 17.5751 148.884 17.0423 150.437 17.0423C151.924 17.0423 153.155 17.6488 154.129 18.8619V17.3373H157.302V28.4029C157.302 29.4849 157.103 30.4111 156.707 31.1816C156.327 31.9521 155.806 32.5341 155.145 32.9275C154.485 33.321 153.799 33.5997 153.088 33.7636C152.395 33.9439 151.643 34.0341 150.833 34.0341ZM151.428 26.3619C151.94 26.3619 152.452 26.2308 152.965 25.9685C153.477 25.7062 153.865 25.3865 154.129 25.0095V21.1734C153.865 20.78 153.477 20.4603 152.965 20.2144C152.469 19.9521 151.957 19.821 151.428 19.821C150.519 19.821 149.784 20.116 149.222 20.7062C148.677 21.2964 148.404 22.0915 148.404 23.0915C148.404 24.0915 148.677 24.8865 149.222 25.4767C149.784 26.0669 150.519 26.3619 151.428 26.3619Z" fill="#FC0E28"/>
</svg>
