<svg aria-hidden="true" style="position: absolute; width: 0; height: 0; overflow: hidden;" version="1.1" xmlns="http://www.w3.org/2000/svg" xmlns:xlink="http://www.w3.org/1999/xlink">
<defs>
<symbol id="icon-close" viewBox="0 0 22 32">
<path fill="#fff" style="fill: var(--color1, #fff)" d="M18.767 12.96v-4.96c0-4.48-3.441-8-7.82-8s-7.82 3.52-7.82 8v4.96c-1.876 2.080-3.128 4.8-3.128 7.84 0 6.24 4.849 11.2 10.947 11.2s10.947-4.96 10.947-11.2c0-3.040-1.095-5.76-3.128-7.84zM12.512 21.92v2.080c0 0.96-0.627 1.6-1.565 1.6s-1.565-0.64-1.565-1.6v-2.080c-1.095-0.64-1.876-2.080-1.406-3.52 0.312-1.12 1.251-2.080 2.346-2.4 2.033-0.48 3.752 1.12 3.752 3.2 0 1.12-0.625 2.24-1.563 2.72zM15.64 10.72c-1.408-0.64-2.974-1.12-4.692-1.12-1.72 0-3.284 0.48-4.692 1.12v-2.72c0-2.72 2.033-4.8 4.692-4.8s4.692 2.080 4.692 4.8v2.72z"></path>
</symbol>
<symbol id="icon-mail" viewBox="0 0 44 32">
<path fill="#3b8dd0" style="fill: var(--color2, #3b8dd0)" d="M29.461 16.228l14.983 9.472v-19.344l-14.983 9.872zM0 6.356v19.344l14.983-9.472-14.983-9.872zM41.668 0.722h-38.889c-1.387 0-2.487 1.035-2.695 2.364l22.139 14.585 22.139-14.587c-0.208-1.33-1.308-2.364-2.693-2.364zM26.916 17.906l-3.929 2.588c-0.215 0.144-0.48 0.23-0.764 0.23s-0.549-0.086-0.77-0.233l0.005 0.003-3.929-2.592-17.44 11.031c0.213 1.319 1.308 2.345 2.688 2.345h38.889c1.381 0 2.476-1.026 2.69-2.345l-17.44-11.028z"></path>
</symbol>
<symbol id="icon-tel" viewBox="0 0 32 32">
<path fill="#3b8dd0" style="fill: var(--color2, #3b8dd0)" d="M11.765 18.343c-2.017-2.713-2.207-5.156-2.187-6.122 0.005-0.276 0.14-0.52 0.346-0.673l0.002-0.002 2.193-1.632c0.213-0.159 0.349-0.41 0.349-0.693 0-0.126-0.027-0.245-0.075-0.353l0.002 0.005-2.353-5.177c-0.137-0.307-0.439-0.517-0.79-0.517-0.097 0-0.19 0.016-0.277 0.046l0.006-0.002-5.23 1.586c-0.336 0.111-0.578 0.415-0.594 0.777l-0 0.002c-0.1 2.474 0.083 8.615 5.106 15.36 5.020 6.746 10.851 8.685 13.249 9.297 0.063 0.017 0.136 0.026 0.211 0.026 0.292 0 0.55-0.146 0.705-0.369l0.002-0.003 3.019-4.555c0.098-0.138 0.156-0.31 0.156-0.495 0-0.262-0.117-0.497-0.301-0.655l-0.001-0.001-4.285-3.74c-0.15-0.128-0.346-0.207-0.56-0.207-0.195 0-0.374 0.065-0.519 0.173l0.002-0.002-2.193 1.633c-0.142 0.107-0.321 0.171-0.514 0.171-0.083 0-0.163-0.012-0.239-0.034l0.006 0.002c-0.929-0.259-3.217-1.139-5.235-3.851zM23.775 17.394c-0.42-0.063-0.738-0.421-0.738-0.854 0-0.045 0.003-0.089 0.010-0.132l-0.001 0.005c0.043-0.28 0.067-0.603 0.067-0.932 0-3.247-2.386-5.936-5.501-6.409l-0.036-0.005c-0.42-0.063-0.739-0.422-0.739-0.855 0-0.477 0.387-0.864 0.864-0.864 0.044 0 0.088 0.003 0.13 0.010l-0.005-0.001c3.991 0.605 7.014 4.012 7.014 8.125 0 0.417-0.031 0.827-0.091 1.228l0.006-0.045c-0.063 0.42-0.421 0.738-0.854 0.738-0.045 0-0.089-0.003-0.132-0.010l0.005 0.001z"></path>
<path fill="#3b8dd0" style="fill: var(--color2, #3b8dd0)" d="M28.047 18.019c-0.42-0.063-0.738-0.421-0.738-0.854 0-0.044 0.003-0.088 0.010-0.131l-0.001 0.005c0.072-0.467 0.112-1.006 0.112-1.554 0-5.412-3.978-9.894-9.17-10.683l-0.060-0.007c-0.42-0.063-0.738-0.422-0.738-0.854 0-0.477 0.387-0.863 0.863-0.863 0.044 0 0.088 0.003 0.13 0.010l-0.005-0.001c6.091 0.924 10.706 6.124 10.706 12.401 0 0.636-0.047 1.262-0.139 1.873l0.008-0.069c-0.064 0.419-0.422 0.737-0.855 0.737-0.044 0-0.087-0.003-0.13-0.010l0.005 0.001z"></path>
</symbol>
<symbol id="icon-Vector" viewBox="0 0 32 32">
<path fill="#ffd001" style="fill: var(--color3, #ffd001)" d="M17.687 0c-7.736 2.633-14.263 8-16.925 16 2.63 7.909 9.097 13.336 16.925 16 6.962-5.416 10.758-9.766 13.551-16-4.008-2.715-5.693-4.114-8.943-8.317-4.354 2.042-8.145 4.419-11.502 8.23 1.204 1.733 3.206 3.348 4.823 4.678 2.357-1.749 4.155-3.453 5.318-4.914 0.731 0.901 1.554 1.499 2.339 2.001-2.027 3.476-4.299 5.385-7.106 7.208-4.216-2.251-7.604-6.149-9.253-9.445 3.087-5.137 7.93-8.605 13.432-10.537-0.891-1.576-2.062-3.045-2.661-4.904z"></path>
</symbol>
</defs>
</svg>
