<svg aria-hidden="true" style="position: absolute; width: 0; height: 0; overflow: hidden;" version="1.1" xmlns="http://www.w3.org/2000/svg" xmlns:xlink="http://www.w3.org/1999/xlink">
  <defs>
    <symbol id="icon-4" viewBox="0 0 30 32">
      <path fill="#7d5a50" style="fill: var(--color1, #7d5a50)" d="M7.473 17.104c-4.016 0-4.928 4.374-4.965 9.193-0.002 0.201 0.121 0.381 0.31 0.465 0.645 0.289 1.496 0.518 2.369 0.667l4.561 0.002c0.878-0.149 1.734-0.379 2.382-0.669 0.188-0.084 0.311-0.265 0.31-0.465-0.037-4.819-0.95-9.194-4.965-9.194z"></path>
      <path fill="#daad89" style="fill: var(--color2, #daad89)" d="M12.991 30.897v-0.695c-0-0.612-0.332-1.146-0.826-1.433l-0.008-0.004-2.472-1.413c-0.335-0.194-0.556-0.55-0.556-0.958 0-0 0-0 0-0v0-1.015h-3.31v1.015c-0 0.408-0.222 0.764-0.551 0.955l-0.005 0.003-2.472 1.413c-0.502 0.291-0.834 0.825-0.834 1.437 0 0 0 0 0 0v-0 0.695c0 0.609 0.494 1.103 1.104 1.103h8.827c0.609 0 1.103-0.494 1.104-1.103v-0z"></path>
      <path fill="#f0c087" style="fill: var(--color3, #f0c087)" d="M10.232 21.518v2.925c0 0.6-0.319 1.125-0.796 1.415l-0.007 0.004-1.387 0.833c-0.162 0.099-0.358 0.157-0.568 0.157s-0.406-0.058-0.573-0.16l0.005 0.003-1.387-0.833c-0.485-0.294-0.803-0.819-0.804-1.419v0-2.925s3.311 0 4.414-1.103l1.104 1.103z"></path>
      <path fill="#ff678b" style="fill: var(--color4, #ff678b)" d="M12.157 28.765l-1.611-0.921c-0.305 0.432-1.457 1.941-3.073 2.501-1.615-0.559-2.768-2.069-3.073-2.501l-1.61 0.92c-0.502 0.291-0.834 0.825-0.834 1.437 0 0 0 0 0 0v-0 0.695c0 0.609 0.494 1.103 1.103 1.103h8.828c0.609 0 1.103-0.494 1.104-1.103v-0.695c-0-0.612-0.332-1.146-0.826-1.433l-0.008-0.004z"></path>
      <path fill="#ff5987" style="fill: var(--color5, #ff5987)" d="M15.749 2.759h-13.241c-1.214 0-2.208 0.993-2.208 2.207v7.725c0 1.214 0.993 2.207 2.207 2.207h7.173v2.093c0 0.246 0.297 0.369 0.471 0.195l2.288-2.288h3.31c1.214 0 2.207-0.993 2.207-2.207v-7.725c0-1.214-0.993-2.207-2.207-2.207z"></path>
      <path fill="#f9fbff" style="fill: var(--color6, #f9fbff)" d="M12.439 2.759v7.173c0 1.214 0.993 2.207 2.207 2.207h3.311v0.552c0 0.192-0.033 0.374-0.080 0.552h-3.23c-1.825 0-3.31-1.485-3.31-3.311v-7.173h1.104z"></path>
      <path fill="#fff" style="fill: var(--color7, #fff)" d="M10.232 7.724c0-1.826-1.485-3.311-3.31-3.311s-3.311 1.485-3.311 3.311v1.655c0 1.826 1.485 3.311 3.311 3.311 0.714 0 1.374-0.229 1.915-0.615l0.453 0.454c0.108 0.108 0.249 0.162 0.39 0.162 0 0 0.001 0 0.001 0 0.305 0 0.551-0.247 0.551-0.551 0-0.153-0.062-0.291-0.162-0.39v0l-0.454-0.454c0.385-0.531 0.615-1.196 0.615-1.915 0-0 0-0 0-0v0-1.655zM8.691 10.369c-0.1-0.1-0.238-0.162-0.39-0.162-0.305 0-0.552 0.247-0.552 0.552 0 0.152 0.062 0.29 0.162 0.39l0.125 0.125c-0.328 0.194-0.706 0.313-1.114 0.313-1.218-0.001-2.206-0.989-2.207-2.207v-1.655c0.001-1.218 0.989-2.206 2.207-2.207h0c1.218 0.001 2.205 0.989 2.207 2.207v1.655c0 0.408-0.119 0.786-0.313 1.114l-0.125-0.125z"></path>
      <path fill="#3b8dd0" style="fill: var(--color8, #3b8dd0)" d="M14.646 0h13.242c1.214 0 2.207 0.993 2.207 2.207v7.724c0 1.214-0.993 2.207-2.207 2.207h-7.173v2.093c0 0.246-0.297 0.368-0.471 0.195l-2.288-2.287h-3.311c-1.214 0-2.207-0.993-2.207-2.207v-7.724c0-1.214 0.993-2.207 2.207-2.207z"></path>
      <path fill="#d29b6e" style="fill: var(--color9, #d29b6e)" d="M28.468 27.735l-2.624-0.984c-0.431-0.162-0.716-0.671-0.716-1.131h-4.414c0 0.46-0.285 0.969-0.716 1.131l-2.624 0.984c-0.633 0.242-1.074 0.845-1.074 1.55 0 0 0 0 0 0v0 1.612c0 0.609 0.494 1.103 1.103 1.103h11.035c0.609-0 1.103-0.494 1.103-1.103v-1.612c0-0 0-0 0-0 0-0.705-0.441-1.307-1.062-1.546l-0.011-0.004z"></path>
      <path fill="#3b8dd0" style="fill: var(--color8, #3b8dd0)" d="M28.468 27.735l-2.122-0.796-2.718 2.265c-0.19 0.159-0.437 0.256-0.706 0.256s-0.516-0.097-0.708-0.257l0.002 0.001-2.718-2.265-2.122 0.796c-0.633 0.242-1.074 0.845-1.074 1.55 0 0 0 0 0 0v0 1.612c0 0.609 0.494 1.103 1.104 1.103h11.035c0.609 0 1.103-0.494 1.104-1.103v-1.612c0 0 0 0 0 0 0-0.705-0.441-1.308-1.063-1.546l-0.011-0.004z"></path>
      <path fill="#f0c087" style="fill: var(--color3, #f0c087)" d="M26.627 18.906l-0.344 5.164c-0.034 0.497-0.283 0.931-0.654 1.211l-0.004 0.003-1.158 0.868c-0.273 0.207-0.619 0.331-0.993 0.331v0h-1.104c-0 0-0 0-0 0-0.374 0-0.72-0.124-0.997-0.334l0.004 0.003-1.157-0.868c-0.375-0.283-0.624-0.717-0.658-1.209l-0-0.005-0.344-5.164c-0.003-0.044-0.005-0.095-0.005-0.146 0-1.219 0.988-2.207 2.207-2.207h3.006c0 0 0 0 0 0 1.219 0 2.207 0.988 2.207 2.207 0 0.052-0.002 0.103-0.005 0.154l0-0.007z"></path>
      <path fill="#5b5d6e" style="fill: var(--color10, #5b5d6e)" d="M26.993 21.665c-0.297-0.025-0.568 0.21-0.587 0.514-0.056 0.837-0.812 1.545-1.652 1.545h-1.832v1.104h1.832c1.424 0 2.658-1.155 2.753-2.575 0.001-0.011 0.001-0.024 0.001-0.037 0-0.292-0.227-0.531-0.513-0.55l-0.002-0z"></path>
      <path fill="#5a4146" style="fill: var(--color11, #5a4146)" d="M24.425 16.552h-3.006c-0 0-0 0-0 0-1.219 0-2.207 0.988-2.207 2.207 0 0.052 0.002 0.103 0.005 0.154l-0-0.007 0.137 2.059c0.19-0.013 4.922-0.354 7.239-1.557l0.033-0.502c0.003-0.044 0.005-0.095 0.005-0.147 0-1.219-0.988-2.207-2.207-2.207-0 0-0 0-0 0v0z"></path>
      <path fill="#707487" style="fill: var(--color12, #707487)" d="M22.922 24.827c0.004 0 0.009 0 0.013 0 0.305 0 0.552-0.247 0.552-0.552s-0.247-0.552-0.552-0.552c-0.005 0-0.009 0-0.014 0h0.001c-0.305 0-0.552 0.247-0.552 0.552s0.247 0.552 0.552 0.552v0z"></path>
      <path fill="#fff" style="fill: var(--color7, #fff)" d="M24.563 9.255l-1.458-6.317c-0.172-0.74-0.826-1.283-1.606-1.283-0.002 0-0.005 0-0.007 0h-0.451c-0.002 0-0.004 0-0.006 0-0.781 0-1.434 0.543-1.604 1.272l-0.002 0.011-1.458 6.317c-0.007 0.033-0.011 0.071-0.011 0.11 0 0.305 0.247 0.552 0.552 0.552 0.256 0 0.47-0.174 0.533-0.409l0.001-0.004 0.41-1.779h3.621l0.41 1.779c0.058 0.247 0.277 0.428 0.538 0.428 0.305 0 0.552-0.247 0.552-0.552 0-0.044-0.005-0.087-0.015-0.128l0.001 0.004zM19.711 6.621l0.793-3.435c0.057-0.246 0.275-0.427 0.535-0.427 0.001 0 0.002 0 0.003 0h0.451c0.259 0 0.479 0.175 0.537 0.428l0.793 3.434h-3.111z"></path>
    </symbol>
    <symbol id="icon-3" viewBox="0 0 39 32">
      <path fill="#ffb980" style="fill: var(--color13, #ffb980)" d="M9.57 19.79c-1.393 0-2.656-0.598-3.589-1.564-0.001 0.579-0.022 1.415-0.175 2.024 0.101 0.061 0.179 0.163 0.194 0.288 0.199 1.619 1.734 2.84 3.57 2.84s3.371-1.221 3.57-2.84c0.016-0.126 0.092-0.227 0.194-0.288-0.153-0.609-0.174-1.446-0.175-2.024-0.932 0.966-2.196 1.563-3.589 1.563z"></path>
      <path fill="#f8ab6b" style="fill: var(--color14, #f8ab6b)" d="M13.081 18.3c-0.925 0.921-2.155 1.49-3.511 1.49-1.393 0-2.656-0.598-3.589-1.564-0.001 0.579-0.022 1.415-0.175 2.024 0.101 0.062 0.179 0.163 0.194 0.288 0.088 0.716 0.438 1.353 0.958 1.842 2.401-0.338 5.126-2.709 6.123-4.081z"></path>
      <path fill="#00e68c" style="fill: var(--color15, #00e68c)" d="M16.848 20.681c-0.013-0.004-0.030-0.008-0.047-0.010l-0.002-0-3.183-0.478c-0.024-0.003-0.052-0.004-0.081-0.004-0 0-0 0-0 0v0c-0.201 0-0.371 0.15-0.395 0.35-0.199 1.619-1.734 2.84-3.57 2.84s-3.371-1.22-3.57-2.84c-0.025-0.206-0.21-0.36-0.406-0.35-0.005-0-0.011-0-0.016-0-0.019 0-0.038 0.002-0.057 0.005l0.002-0-3.183 0.478c-0.019 0.003-0.035 0.006-0.051 0.011l0.003-0.001c-1.505 0.421-2.292 1.901-2.292 3.146v1.545c0 0.658 0.586 1.192 1.306 1.192h16.529c0.72 0 1.306-0.535 1.306-1.193v-1.545c0-1.245-0.787-2.725-2.292-3.146z"></path>
      <path fill="#fdc88e" style="fill: var(--color16, #fdc88e)" d="M13.159 9.821h-6.779c-1.101 0.001-1.992 0.893-1.994 1.994v2.393c0 3.078 2.326 5.582 5.184 5.582s5.184-2.504 5.184-5.583v-2.791c-0.001-0.881-0.714-1.595-1.595-1.595h-0z"></path>
      <path fill="#5c546a" style="fill: var(--color17, #5c546a)" d="M12.361 5.435h-5.184c-0.747 0.001-1.374 0.515-1.548 1.208l-0.002 0.011c-1.373 0.174-2.437 1.35-2.437 2.769v1.994c0 0.001 0 0.002 0 0.002 0 1.058 0.461 2.009 1.193 2.662l0.003 0.003v-2.269c0.001-1.1 0.893-1.992 1.993-1.994h6.779c0.881 0.001 1.594 0.714 1.595 1.595v2.667c0.735-0.656 1.196-1.607 1.196-2.665 0-0.001 0-0.002 0-0.002v0-2.393c0-1.979-1.61-3.589-3.589-3.589z"></path>
      <path fill="#ffb980" style="fill: var(--color13, #ffb980)" d="M29.078 19.79c-1.393 0-2.656-0.598-3.589-1.564-0.001 0.579-0.022 1.415-0.175 2.024 0.101 0.061 0.179 0.163 0.194 0.288 0.199 1.619 1.734 2.84 3.57 2.84s3.37-1.221 3.57-2.84c0.015-0.126 0.092-0.227 0.194-0.288-0.153-0.609-0.174-1.446-0.175-2.024-0.932 0.966-2.196 1.563-3.589 1.563z"></path>
      <path fill="#f8ab6b" style="fill: var(--color14, #f8ab6b)" d="M32.589 18.3c-0.925 0.921-2.155 1.49-3.511 1.49-1.393 0-2.656-0.598-3.589-1.564-0.001 0.579-0.022 1.415-0.175 2.024 0.101 0.062 0.179 0.163 0.194 0.288 0.088 0.716 0.437 1.353 0.958 1.842 2.401-0.338 5.126-2.709 6.123-4.081z"></path>
      <path fill="#00abff" style="fill: var(--color18, #00abff)" d="M36.356 20.681c-0.013-0.004-0.029-0.008-0.046-0.010l-0.002-0-3.184-0.478c-0.024-0.003-0.052-0.004-0.081-0.004-0 0-0 0-0 0v0c-0.201 0-0.371 0.15-0.396 0.35-0.199 1.619-1.734 2.84-3.57 2.84s-3.371-1.22-3.57-2.84c-0.025-0.206-0.21-0.36-0.406-0.35-0.005-0-0.010-0-0.016-0-0.019 0-0.038 0.002-0.057 0.005l0.002-0-3.183 0.478c-0.019 0.003-0.035 0.006-0.051 0.011l0.003-0.001c-1.505 0.421-2.292 1.902-2.292 3.147v1.545c0 0.658 0.586 1.192 1.306 1.192h16.529c0.72 0 1.306-0.535 1.306-1.193v-1.545c0-1.245-0.788-2.725-2.292-3.146z"></path>
      <path fill="#fdc88e" style="fill: var(--color16, #fdc88e)" d="M32.666 9.821h-6.779c-1.101 0.001-1.992 0.893-1.994 1.994v2.393c0 3.078 2.325 5.582 5.184 5.582s5.184-2.504 5.184-5.583v-2.791c-0.001-0.881-0.714-1.594-1.595-1.595h-0z"></path>
      <path fill="#7e5c62" style="fill: var(--color19, #7e5c62)" d="M31.869 5.435h-5.184c-0.747 0.001-1.374 0.515-1.548 1.208l-0.002 0.011c-1.373 0.174-2.437 1.35-2.437 2.769v1.994c0 0.001 0 0.002 0 0.002 0 1.058 0.461 2.009 1.193 2.662l0.003 0.003v-2.269c0.001-1.1 0.893-1.992 1.993-1.994h6.779c0.881 0.001 1.594 0.714 1.595 1.595v2.667c0.735-0.656 1.196-1.607 1.196-2.665 0-0.001 0-0.002 0-0.002v0-2.393c0-1.979-1.61-3.589-3.589-3.589z"></path>
      <path fill="#fdc88e" style="fill: var(--color16, #fdc88e)" d="M19.324 21.739c-2.109 0-4.023-0.905-5.435-2.368-0.001 0.877-0.033 2.142-0.265 3.065 0.152 0.093 0.271 0.246 0.294 0.437 0.302 2.452 2.625 4.301 5.407 4.301s5.105-1.849 5.407-4.301c0.023-0.191 0.139-0.343 0.294-0.436-0.232-0.923-0.264-2.189-0.265-3.066-1.412 1.463-3.326 2.368-5.435 2.368z"></path>
      <path fill="#ffb980" style="fill: var(--color13, #ffb980)" d="M24.641 19.483c-1.4 1.395-3.264 2.257-5.317 2.257-2.109 0-4.023-0.905-5.435-2.368-0.001 0.877-0.033 2.142-0.265 3.065 0.152 0.093 0.271 0.246 0.294 0.437 0.133 1.084 0.662 2.049 1.451 2.79 3.636-0.512 7.763-4.102 9.273-6.18z"></path>
      <path fill="#ff5987" style="fill: var(--color5, #ff5987)" d="M30.346 23.089c-0.020-0.006-0.045-0.011-0.070-0.015l-0.003-0-4.82-0.723c-0.037-0.004-0.079-0.007-0.122-0.007h-0c-0.305 0-0.562 0.227-0.6 0.53-0.302 2.452-2.626 4.301-5.406 4.301s-5.105-1.849-5.407-4.301c-0.038-0.312-0.318-0.546-0.614-0.53-0.007-0-0.016-0.001-0.024-0.001-0.029 0-0.058 0.002-0.086 0.007l0.003-0-4.82 0.724c-0.025 0.004-0.049 0.009-0.073 0.015-2.279 0.638-3.471 2.88-3.471 4.765v2.339c0 0.996 0.887 1.806 1.977 1.806h25.031c1.090 0 1.977-0.81 1.977-1.806v-2.34c0-1.885-1.192-4.127-3.471-4.765z"></path>
      <path fill="#ffe1b2" style="fill: var(--color20, #ffe1b2)" d="M24.759 6.643h-10.266c-1.665 0-3.020 1.355-3.020 3.019v3.623c0 4.662 3.522 8.454 7.851 8.454s7.85-3.792 7.85-8.454v-4.227c-0.001-1.333-1.082-2.414-2.415-2.415h-0z"></path>
      <path fill="#7e5449" style="fill: var(--color21, #7e5449)" d="M23.551 0h-7.851c-1.136 0-2.090 0.788-2.348 1.846-2.079 0.264-3.691 2.044-3.691 4.193v3.019c0 1.556 0.661 3.008 1.812 4.040v-3.436c0-1.665 1.355-3.020 3.019-3.020h10.266c1.334 0.001 2.414 1.082 2.415 2.416v4.039c1.151-1.032 1.811-2.483 1.811-4.039v-3.623c0-2.997-2.438-5.435-5.434-5.435z"></path>
    </symbol>
    <symbol id="icon-2" viewBox="0 0 33 32">
      <path fill="#f5faff" style="fill: var(--color22, #f5faff)" d="M16.356 4.622c-6.286 0-11.378 5.092-11.378 11.378s5.092 11.378 11.378 11.378c0.007 0 0.015 0 0.023 0 0.962 0 1.895-0.122 2.785-0.351l-0.077 0.017c-0.153-0.539-0.241-1.159-0.242-1.799v-0c0-3.733 3.022-6.756 6.756-6.756 0.626 0 1.23 0.085 1.806 0.242 0.208-0.819 0.327-1.759 0.327-2.727 0-0.001 0-0.003 0-0.004v0c0-6.286-5.092-11.378-11.378-11.378z"></path>
      <path fill="#68ca44" style="fill: var(--color23, #68ca44)" d="M2.489 26.311c1.372 0 2.489 1.116 2.489 2.489s-1.116 2.489-2.489 2.489-2.489-1.116-2.489-2.489 1.116-2.489 2.489-2.489zM29.867 1.778c0.782 0 1.422 0.633 1.422 1.422s-0.64 1.422-1.422 1.422c-0.782 0-1.422-0.633-1.422-1.422s0.64-1.422 1.422-1.422z"></path>
      <path fill="#3b8dd0" style="fill: var(--color8, #3b8dd0)" d="M17.067 6.933v1.422c0 0.391-0.32 0.711-0.711 0.711s-0.711-0.32-0.711-0.711v-1.422c0-0.391 0.32-0.711 0.711-0.711 0.199 0 0.377 0.078 0.505 0.206s0.206 0.306 0.206 0.505zM23.268 9.088c0.135 0.135 0.206 0.32 0.206 0.505s-0.071 0.363-0.206 0.505l-1.003 1.003c-0.128 0.129-0.305 0.208-0.501 0.208s-0.373-0.080-0.501-0.208l-0-0c-0.129-0.128-0.208-0.305-0.208-0.501s0.080-0.373 0.208-0.501l1.003-1.003c0.128-0.132 0.307-0.214 0.505-0.214 0.195 0 0.371 0.079 0.498 0.207l0 0zM25.422 15.289c0.391 0 0.711 0.32 0.711 0.711 0 0.199-0.078 0.377-0.206 0.505s-0.305 0.206-0.5 0.206c-0.002 0-0.004 0-0.005-0h-1.422c-0.391 0-0.711-0.32-0.711-0.711s0.32-0.711 0.711-0.711h1.422zM17.067 23.644v1.422c0 0.391-0.32 0.711-0.711 0.711s-0.711-0.32-0.711-0.711v-1.422c0-0.391 0.32-0.711 0.711-0.711 0.199 0 0.377 0.078 0.505 0.206s0.206 0.306 0.206 0.505zM11.456 20.9c0.142 0.142 0.206 0.32 0.206 0.505s-0.071 0.363-0.206 0.505l-1.003 1.003c-0.128 0.129-0.305 0.208-0.501 0.208s-0.373-0.080-0.501-0.208l-0-0c-0.129-0.128-0.208-0.306-0.208-0.502s0.080-0.373 0.208-0.501l1.003-1.003c0.27-0.284 0.725-0.284 1.003-0.007zM8.711 15.289c0.391 0 0.711 0.32 0.711 0.711 0 0.199-0.078 0.377-0.206 0.505s-0.305 0.206-0.5 0.206c-0.002 0-0.004 0-0.005-0h-1.422c-0.391 0-0.711-0.32-0.711-0.711s0.32-0.711 0.711-0.711h1.422zM11.456 10.091c0.129 0.128 0.208 0.305 0.208 0.501s-0.080 0.373-0.208 0.501l-0 0c-0.128 0.129-0.305 0.208-0.501 0.208s-0.373-0.080-0.501-0.208l-1.003-1.003c-0.129-0.128-0.208-0.305-0.208-0.501s0.080-0.373 0.208-0.501l0-0c0.135-0.135 0.32-0.206 0.505-0.206s0.363 0.071 0.505 0.206l0.996 1.003z"></path>
      <path fill="#d0dce7" style="fill: var(--color24, #d0dce7)" d="M20.267 16h-2.844c0-0.59-0.476-1.067-1.067-1.067v-2.844c2.162 0 3.911 1.75 3.911 3.911z"></path>
      <path fill="#57606f" style="fill: var(--color25, #57606f)" d="M30.222 16c0 1.337-0.192 2.631-0.54 3.861-0.645-0.496-1.405-0.882-2.229-1.112l-0.047-0.011c1.771-7.196-3.684-14.116-11.051-14.116-6.286 0-11.378 5.092-11.378 11.378s5.092 11.378 11.378 11.378c0.946 0 1.856-0.114 2.731-0.334 0.245 0.87 0.63 1.629 1.136 2.292l-0.012-0.016c-1.153 0.348-2.478 0.548-3.849 0.548-0.004 0-0.008 0-0.013 0h0.001c-7.659 0-13.867-6.208-13.867-13.867s6.208-13.867 13.867-13.867c7.666 0 13.874 6.208 13.874 13.867z"></path>
      <path fill="#ff5987" style="fill: var(--color5, #ff5987)" d="M32.356 25.244c0 3.733-3.022 6.756-6.756 6.756s-6.756-3.029-6.756-6.756c0-4.466 4.26-7.701 8.562-6.514 2.852 0.789 4.949 3.407 4.949 6.514z"></path>
      <path fill="#fff" style="fill: var(--color7, #fff)" d="M28.508 27.996c-0.199 0-0.356-0.164-0.356-0.356v-1.081h-2.076c-0.13-0.002-0.243-0.072-0.305-0.176l-0.001-0.002c-0.030-0.051-0.048-0.112-0.048-0.178s0.018-0.127 0.049-0.179l-0.001 0.002 1.892-3.292c0.064-0.114 0.178-0.178 0.306-0.178h0.555c0.092 0 0.185 0.036 0.249 0.107s0.107 0.156 0.107 0.249l-0.007 2.937h0.277c0.199 0 0.356 0.156 0.356 0.356s-0.156 0.356-0.356 0.356h-0.277v1.088c-0.010 0.193-0.168 0.347-0.363 0.348h-0zM26.688 25.849h1.465l0.007-2.567-1.472 2.567zM24.853 28.153l-2.496-0.007c-0.092 0-0.185-0.036-0.249-0.107-0.064-0.064-0.105-0.151-0.107-0.248v-0.164c0-0.092 0.036-0.178 0.1-0.242 0.007-0.007 0.526-0.555 1.714-2.254 0.242-0.341 0.391-0.654 0.462-0.917l0.021-0.142c-0.013-0.485-0.409-0.874-0.896-0.875h-0c-0.427 0-0.796 0.306-0.875 0.718-0.036 0.192-0.228 0.32-0.42 0.277-0.164-0.032-0.285-0.175-0.285-0.345 0-0.026 0.003-0.052 0.008-0.077l-0 0.002c0.149-0.747 0.811-1.294 1.572-1.294 0.887 0.001 1.606 0.72 1.607 1.607v0.043l-0.021 0.192c0 0.014-0.007 0.021-0.007 0.036-0.085 0.363-0.277 0.761-0.576 1.18-0.662 0.946-1.124 1.55-1.408 1.906l1.87 0.007c0.199 0 0.356 0.164 0.356 0.356-0.013 0.194-0.173 0.347-0.37 0.348h-0z"></path>
      <path fill="#94d4ff" style="fill: var(--color26, #94d4ff)" d="M30.756 8.178c0.292 0 0.533 0.242 0.533 0.533s-0.242 0.533-0.533 0.533c-0.292 0-0.533-0.242-0.533-0.533s0.242-0.533 0.533-0.533zM25.067 0c0.292 0 0.533 0.242 0.533 0.533s-0.242 0.533-0.533 0.533c-0.292 0-0.533-0.242-0.533-0.533s0.242-0.533 0.533-0.533zM10.489 29.867c0.292 0 0.533 0.242 0.533 0.533s-0.242 0.533-0.533 0.533-0.533-0.242-0.533-0.533c0-0.291 0.242-0.533 0.533-0.533zM3.378 1.067c0.299 0 0.533 0.242 0.533 0.533s-0.235 0.533-0.533 0.533c-0.292 0-0.533-0.242-0.533-0.533s0.242-0.533 0.533-0.533zM1.244 9.244c0.299 0 0.533 0.242 0.533 0.533s-0.235 0.533-0.533 0.533c-0.292 0-0.533-0.242-0.533-0.533s0.242-0.533 0.533-0.533z"></path>
      <path fill="#a0b5c5" style="fill: var(--color27, #a0b5c5)" d="M16.356 20.267c-2.354 0-4.267-1.913-4.267-4.267 0-0.199 0.156-0.356 0.356-0.356s0.356 0.156 0.356 0.356c0 1.963 1.593 3.556 3.556 3.556s3.556-1.593 3.556-3.556-1.593-3.556-3.556-3.556c-0.001 0-0.002 0-0.003 0-0.195 0-0.352-0.158-0.352-0.352 0-0.001 0-0.002 0-0.003v0c0-0.199 0.156-0.356 0.356-0.356 2.354 0 4.267 1.913 4.267 4.267s-1.913 4.267-4.267 4.267z"></path>
      <path fill="#57606f" style="fill: var(--color25, #57606f)" d="M20.267 16.356h-2.844c-0.001 0-0.002 0-0.003 0-0.195 0-0.352-0.158-0.352-0.352 0-0.001 0-0.002 0-0.003v0c0-0.199 0.156-0.356 0.356-0.356h2.844c0.199 0 0.356 0.156 0.356 0.356s-0.156 0.356-0.356 0.356zM16.356 15.289c-0.001 0-0.002 0-0.003 0-0.195 0-0.352-0.158-0.352-0.352 0-0.001 0-0.002 0-0.003v0-4.267c0-0.199 0.156-0.356 0.356-0.356s0.356 0.156 0.356 0.356v4.267c0 0.199-0.156 0.356-0.356 0.356z"></path>
      <path fill="#ff5987" style="fill: var(--color5, #ff5987)" d="M16.356 14.933c0.59 0 1.067 0.476 1.067 1.067s-0.476 1.067-1.067 1.067c-0 0-0.001 0-0.001 0-0.588 0-1.065-0.477-1.065-1.065 0-0 0-0.001 0-0.001v0c0-0.59 0.476-1.067 1.067-1.067z"></path>
    </symbol>
    <symbol id="icon-1" viewBox="0 0 33 32">
      <path fill="#57606f" style="fill: var(--color25, #57606f)" d="M30.861 27.56h-1.283c1.147-0.274 2.001-1.305 2.001-2.536v-16.316c-0-1.44-1.168-2.607-2.608-2.607h-24.928c-0 0-0 0-0 0-1.44 0-2.607 1.167-2.607 2.607v0 16.316c0 1.225 0.844 2.252 1.983 2.532l0.018 0.004h-1.283c-1.189 0-2.153 0.964-2.153 2.153s0.964 2.153 2.153 2.153h28.708c0 0 0 0 0 0 1.189 0 2.153-0.964 2.153-2.153 0-0 0-0 0-0v0c0-1.178-0.954-2.153-2.153-2.153z"></path>
      <path fill="#414a56" style="fill: var(--color28, #414a56)" d="M12.919 27.56v1.435h7.177v-1.435h10.766c1.189 0 2.153 0.964 2.153 2.153s-0.964 2.153-2.153 2.153h-28.708c-1.189 0-2.153-0.964-2.153-2.153s0.964-2.153 2.153-2.153h10.766z"></path>
      <path fill="#7d89aa" style="fill: var(--color29, #7d89aa)" d="M24.761 27.56h3.947v1.435h-3.947v-1.435zM4.306 27.56h3.947v1.435h-3.947v-1.435z"></path>
      <path fill="#68ca44" style="fill: var(--color23, #68ca44)" d="M30.143 1.076c0.793 0 1.436 0.643 1.436 1.436s-0.643 1.436-1.436 1.436v0c-0.793 0-1.435-0.643-1.435-1.435s0.643-1.435 1.435-1.435v0zM4.306 0.359c0.007-0 0.016-0 0.024-0 0.991 0 1.795 0.803 1.795 1.795s-0.803 1.795-1.795 1.795c-0.008 0-0.017-0-0.025-0h0.001c-0.981-0.014-1.771-0.812-1.771-1.794s0.79-1.781 1.769-1.794h0.001z"></path>
      <path fill="#57606f" style="fill: var(--color25, #57606f)" d="M31.578 25.024c-0 1.44-1.168 2.608-2.608 2.608-0 0-0 0-0 0h-8.875v1.435h-7.177v-1.435h-8.876c-1.44 0-2.607-1.167-2.607-2.607 0-0 0-0 0-0v0-16.316c0-1.44 1.167-2.607 2.607-2.607h24.928c0 0 0 0 0.001 0 1.44 0 2.608 1.167 2.608 2.607v16.316z"></path>
      <path fill="#d0dce7" style="fill: var(--color24, #d0dce7)" d="M29.067 8.613v16.507h-25.119v-16.507h25.119z"></path>
      <path fill="#e83a70" style="fill: var(--color30, #e83a70)" d="M21.89 1.435v11.125h-2.871v-11.125h2.871zM16.148 3.589v8.971h-2.871v-8.971h2.871z"></path>
      <path fill="#ff5987" style="fill: var(--color5, #ff5987)" d="M24.761 8.613v3.947h-2.871v-12.201h2.871v8.253zM19.019 2.512v10.048h-2.871v-10.048h2.871zM13.277 4.665v7.895h-2.871v-7.895h2.871z"></path>
      <path fill="#94d4ff" style="fill: var(--color26, #94d4ff)" d="M27.093 1.076c0.297 0 0.538-0.241 0.538-0.538s-0.241-0.538-0.538-0.538v0c-0.297 0-0.538 0.241-0.538 0.538s0.241 0.538 0.538 0.538v0zM9.868 1.794c0.297 0 0.538-0.241 0.538-0.538s-0.241-0.538-0.538-0.538v0c-0.297 0-0.538 0.241-0.538 0.538s0.241 0.538 0.538 0.538v0zM1.256 5.383c0.297 0 0.538-0.241 0.538-0.538s-0.241-0.538-0.538-0.538v0c-0.297 0-0.538 0.241-0.538 0.538s0.241 0.538 0.538 0.538v0z"></path>
      <path fill="#a0b5c5" style="fill: var(--color27, #a0b5c5)" d="M8.971 19.019h4.306c0.198 0 0.359-0.161 0.359-0.359s-0.161-0.359-0.359-0.359h-4.306c-0.198 0-0.359 0.161-0.359 0.359s0.161 0.359 0.359 0.359v0zM19.019 19.737h-10.048c-0.198 0-0.359 0.161-0.359 0.359s0.161 0.359 0.359 0.359h10.048c0.198 0 0.359-0.161 0.359-0.359s-0.161-0.359-0.359-0.359v0zM8.971 16.148h4.306c0.198 0 0.359-0.161 0.359-0.359s-0.161-0.359-0.359-0.359h-4.306c-0.198 0-0.359 0.161-0.359 0.359s0.161 0.359 0.359 0.359v0zM8.971 17.584h10.048c0.198 0 0.359-0.161 0.359-0.359s-0.161-0.359-0.359-0.359v0h-10.048c-0.198 0-0.359 0.161-0.359 0.359s0.161 0.359 0.359 0.359v0zM8.971 21.89h4.306c0.198 0 0.359-0.161 0.359-0.359s-0.161-0.359-0.359-0.359h-4.306c-0.198 0-0.359 0.161-0.359 0.359s0.161 0.359 0.359 0.359v0zM19.019 22.608h-10.048c-0.198 0-0.359 0.161-0.359 0.359s0.161 0.359 0.359 0.359h10.048c0.198 0 0.359-0.161 0.359-0.359s-0.161-0.359-0.359-0.359v0zM26.196 12.919h-17.225c-0.198 0-0.359-0.161-0.359-0.359s0.161-0.359 0.359-0.359h17.225c0.198 0 0.359 0.161 0.359 0.359s-0.161 0.359-0.359 0.359v0z"></path>
    </symbol>
    <symbol id="icon-left" viewBox="0 0 43 32">
      <path fill="#fc0e28" style="fill: var(--color1, #fc0e28)" d="M22.242 23.564c0-4.462 1.586-8.923 4.757-13.383 3.17-4.46 6.992-7.852 11.47-10.181l4.197 4.8c-6.062 3.2-9.979 7.271-11.751 12.219 0.187-0.098 0.606-0.146 1.259-0.146 1.586 0 2.939 0.629 4.057 1.892 1.212 1.163 1.819 2.715 1.819 4.654 0 2.327-0.839 4.363-2.517 6.108-1.678 1.648-3.637 2.473-5.876 2.473-2.146 0-3.916-0.729-5.316-2.181-1.399-1.456-2.098-3.54-2.098-6.254zM0 23.564c0-4.462 1.586-8.923 4.756-13.383 3.173-4.46 6.996-7.852 11.472-10.181l4.196 4.8c-6.245 3.298-10.165 7.369-11.751 12.219 0.094-0.098 0.468-0.146 1.12-0.146 1.678 0 3.077 0.629 4.196 1.892 1.214 1.163 1.82 2.715 1.82 4.654 0 2.327-0.839 4.363-2.519 6.108-1.678 1.648-3.636 2.473-5.876 2.473-2.144 0-3.916-0.729-5.316-2.181-1.399-1.456-2.098-3.54-2.098-6.254z"></path>
    </symbol>
    <symbol id="icon-right" viewBox="0 0 43 32">
      <path fill="#fc0e28" style="fill: var(--color1, #fc0e28)" d="M20.424 8.436c0 4.461-1.585 8.921-4.756 13.382s-6.995 7.855-11.471 10.182l-4.197-4.8c6.062-3.2 9.979-7.273 11.751-12.218-0.187 0.097-0.606 0.145-1.259 0.145-1.585 0-2.938-0.63-4.057-1.891-1.212-1.164-1.819-2.715-1.819-4.655 0-2.327 0.839-4.364 2.518-6.109 1.679-1.648 3.637-2.473 5.875-2.473 2.145 0 3.917 0.727 5.316 2.182s2.098 3.539 2.098 6.255zM42.667 8.436c0 4.461-1.585 8.921-4.756 13.382s-6.995 7.855-11.471 10.182l-4.197-4.8c6.248-3.297 10.165-7.37 11.751-12.218-0.093 0.097-0.466 0.145-1.119 0.145-1.679 0-3.078-0.63-4.197-1.891-1.212-1.164-1.819-2.715-1.819-4.655 0-2.327 0.839-4.364 2.518-6.109 1.679-1.649 3.637-2.473 5.875-2.473 2.145 0 3.917 0.727 5.316 2.182s2.098 3.539 2.098 6.255z"></path>
    </symbol>
    <symbol id="icon-Vec" viewBox="0 0 32 32">
      <path fill="#ffd001" style="fill: var(--color1, #ffd001)" d="M17.013 0c-7.778 2.633-14.338 8.001-17.013 16 2.644 7.908 9.143 13.336 17.013 16 6.998-5.416 10.814-9.766 13.621-16-4.029-2.716-5.722-4.114-8.989-8.317-4.377 2.041-8.187 4.419-11.562 8.23 1.211 1.732 3.222 3.349 4.848 4.677 2.369-1.748 4.176-3.451 5.347-4.913 0.734 0.9 1.561 1.499 2.35 2-2.036 3.477-4.321 5.386-7.142 7.209-4.238-2.252-7.644-6.15-9.3-9.447 3.103-5.136 7.97-8.604 13.501-10.537-0.896-1.575-2.070-3.042-2.673-4.903z"></path>
    </symbol>
  </defs>
</svg>