<svg width="23" height="23" viewBox="0 0 23 23" fill="none" xmlns="http://www.w3.org/2000/svg">
<path d="M8.45624 13.1835C7.0053 11.2346 6.87048 9.47841 6.88365 8.78464C6.88704 8.59277 6.97951 8.41341 7.13384 8.29935L8.71094 7.1258C8.94293 6.95321 9.02501 6.64328 8.90886 6.37849L7.21672 2.65652C7.08826 2.36333 6.75791 2.21591 6.45389 2.31612L2.69504 3.45708C2.44946 3.53632 2.27909 3.75995 2.26789 4.01775C2.19574 5.79505 2.32855 10.2095 5.93749 15.0576C9.54643 19.9056 13.7368 21.2986 15.461 21.7393C15.7112 21.8025 15.9743 21.7035 16.1206 21.4909L18.2917 18.2172C18.4743 17.9553 18.4283 17.5975 18.1855 17.3902L15.1051 14.7023C14.8849 14.515 14.5645 14.5044 14.3325 14.677L12.7559 15.8512C12.6024 15.9663 12.4041 16.0035 12.2193 15.9517C11.5509 15.7653 9.90717 15.1325 8.45624 13.1835Z" fill="#3B8DD0"/>
<path d="M17.0882 12.5016C16.749 12.452 16.5143 12.1367 16.564 11.7975C16.9336 9.25445 15.1749 6.8921 12.6326 6.51676C12.2934 6.46708 12.0587 6.15184 12.1084 5.81266C12.1581 5.47348 12.4734 5.23879 12.8125 5.28848C16.0328 5.76382 18.2605 8.75619 17.7923 11.9775C17.7426 12.3166 17.4273 12.5513 17.0882 12.5016Z" fill="#3B8DD0"/>
<path d="M20.1589 12.9514C19.8197 12.9017 19.585 12.5865 19.6347 12.2473C20.2507 8.00883 17.3195 4.07154 13.0824 3.44604C12.7432 3.39635 12.5085 3.08112 12.5582 2.74193C12.6079 2.40275 12.9232 2.16807 13.2623 2.21775C18.1774 2.94326 21.5776 7.51057 20.863 12.4273C20.8391 12.5901 20.7515 12.7369 20.6195 12.8352C20.4874 12.9335 20.3217 12.9753 20.1589 12.9514Z" fill="#3B8DD0"/>
</svg>
